<?xml version="1.0" encoding="UTF-8"?>
<!DOCTYPE svg PUBLIC "-//W3C//DTD SVG 1.1//EN" "http://www.w3.org/Graphics/SVG/1.1/DTD/svg11.dtd">
<svg xmlns="http://www.w3.org/2000/svg" version="1.1" viewBox="0 0 303 120" width="303px" height="120px" style="shape-rendering:geometricPrecision; text-rendering:geometricPrecision; image-rendering:optimizeQuality; fill-rule:evenodd; clip-rule:evenodd" xmlns:xlink="http://www.w3.org/1999/xlink">
<g><path style="opacity:0.774" fill="#000000" d="M 93.5,-0.5 C 95.5,-0.5 97.5,-0.5 99.5,-0.5C 99.5,39.5 99.5,79.5 99.5,119.5C 97.5,119.5 95.5,119.5 93.5,119.5C 93.5,79.5 93.5,39.5 93.5,-0.5 Z"/></g>
<g><path style="opacity:0.763" fill="#000000" d="M 78.5,4.5 C 80.1439,4.28649 81.6439,4.61983 83,5.5C 83.6667,41.5 83.6667,77.5 83,113.5C 81.3333,114.833 79.6667,114.833 78,113.5C 77.1738,77.0954 77.3405,40.762 78.5,4.5 Z"/></g>
<g><path style="opacity:0.75" fill="#000000" d="M 109.5,4.5 C 111.167,4.5 112.833,4.5 114.5,4.5C 114.5,41.1667 114.5,77.8333 114.5,114.5C 112.234,114.859 110.401,114.192 109,112.5C 108.18,76.4584 108.346,40.4584 109.5,4.5 Z"/></g>
<g><path style="opacity:0.761" fill="#000000" d="M 125.5,14.5 C 126.93,14.4208 128.264,14.7542 129.5,15.5C 130.667,44.8277 130.833,74.161 130,103.5C 128.333,104.833 126.667,104.833 125,103.5C 124.175,73.7615 124.342,44.0949 125.5,14.5 Z"/></g>
<g><path style="opacity:0.749" fill="#000000" d="M 62.5,25.5 C 64.1667,25.5 65.8333,25.5 67.5,25.5C 67.5,48.1667 67.5,70.8333 67.5,93.5C 65.5328,93.7394 63.6995,93.4061 62,92.5C 61.1784,70.094 61.345,47.7606 62.5,25.5 Z"/></g>
<g><path style="opacity:0.641" fill="#000000" d="M 140.5,25.5 C 142.467,25.2606 144.301,25.5939 146,26.5C 146.667,48.5 146.667,70.5 146,92.5C 143.67,94.0317 141.67,93.6983 140,91.5C 139.188,69.457 139.355,47.457 140.5,25.5 Z"/></g>
<g><path style="opacity:0.76" fill="#000000" d="M 203.5,25.5 C 205.144,25.2865 206.644,25.6198 208,26.5C 208.5,48.8308 208.667,71.1642 208.5,93.5C 206.533,93.7394 204.699,93.4061 203,92.5C 202.178,70.094 202.345,47.7606 203.5,25.5 Z"/></g>
<g><path style="opacity:0.733" fill="#000000" d="M 187.5,35.5 C 189.766,35.1412 191.599,35.8078 193,37.5C 193.667,52.1667 193.667,66.8333 193,81.5C 191.688,83.6576 190.022,83.9909 188,82.5C 187.5,66.8369 187.333,51.1702 187.5,35.5 Z"/></g>
<g><path style="opacity:0.74" fill="#000000" d="M 219.5,35.5 C 221.144,35.2865 222.644,35.6198 224,36.5C 224.667,51.8333 224.667,67.1667 224,82.5C 222.333,83.8333 220.667,83.8333 219,82.5C 218.183,66.7591 218.35,51.0924 219.5,35.5 Z"/></g>
<g><path style="opacity:0.744" fill="#000000" d="M 250.5,35.5 C 252.144,35.2865 253.644,35.6198 255,36.5C 255.667,51.8333 255.667,67.1667 255,82.5C 253.333,83.8333 251.667,83.8333 250,82.5C 249.183,66.7591 249.35,51.0924 250.5,35.5 Z"/></g>
<g><path style="opacity:0.629" fill="#000000" d="M 157.5,40.5 C 159.39,40.2965 160.89,40.9632 162,42.5C 162.667,53.5 162.667,64.5 162,75.5C 160.321,78.6992 158.321,79.0325 156,76.5C 155.333,65.1667 155.333,53.8333 156,42.5C 156.717,41.9558 157.217,41.2891 157.5,40.5 Z"/></g>
<g><path style="opacity:0.745" fill="#000000" d="M 46.5,46.5 C 48.4672,46.2606 50.3005,46.5939 52,47.5C 52.6667,55.5 52.6667,63.5 52,71.5C 50.3005,72.4061 48.4672,72.7394 46.5,72.5C 46.5,63.8333 46.5,55.1667 46.5,46.5 Z"/></g>
<g><path style="opacity:0.745" fill="#000000" d="M 171.5,46.5 C 173.467,46.2606 175.301,46.5939 177,47.5C 177.667,55.5 177.667,63.5 177,71.5C 175.301,72.4061 173.467,72.7394 171.5,72.5C 171.5,63.8333 171.5,55.1667 171.5,46.5 Z"/></g>
<g><path style="opacity:0.735" fill="#000000" d="M 234.5,46.5 C 236.467,46.2606 238.301,46.5939 240,47.5C 240.667,55.5 240.667,63.5 240,71.5C 238.301,72.4061 236.467,72.7394 234.5,72.5C 234.5,63.8333 234.5,55.1667 234.5,46.5 Z"/></g>
</svg>
