<?xml version="1.0" encoding="UTF-8"?>
<!DOCTYPE svg PUBLIC "-//W3C//DTD SVG 1.1//EN" "http://www.w3.org/Graphics/SVG/1.1/DTD/svg11.dtd">
<svg xmlns="http://www.w3.org/2000/svg" version="1.1" viewBox="0 0 256 300" width="256px" height="300px" style="shape-rendering:geometricPrecision; text-rendering:geometricPrecision; image-rendering:optimizeQuality; fill-rule:evenodd; clip-rule:evenodd" xmlns:xlink="http://www.w3.org/1999/xlink">
<g><path style="opacity:0.989" fill="#fec651" d="M 58.5,51.5 C 57.5,52.1667 56.5,52.8333 55.5,53.5C 50.9136,54.4598 46.9136,56.4598 43.5,59.5C 39.8333,61.1667 37.1667,63.8333 35.5,67.5C 32.1591,70.8397 29.8257,74.8397 28.5,79.5C 27.4336,81.7014 26.767,84.0347 26.5,86.5C 25.1045,90.5909 24.4379,94.9242 24.5,99.5C 24.5,102.167 24.5,104.833 24.5,107.5C 24.5,109.833 24.5,112.167 24.5,114.5C 23.6717,108.013 23.1717,101.346 23,94.5C 18.8386,87.6695 13.0053,85.8362 5.5,89C 2.87922,91.1141 0.879222,93.6141 -0.5,96.5C -0.5,95.1667 -0.5,93.8333 -0.5,92.5C 5.69253,59.8766 25.3592,46.2099 58.5,51.5 Z"/></g>
<g><path style="opacity:0.694" fill="#c1663a" d="M 58.5,51.5 C 103.5,51.5 148.5,51.5 193.5,51.5C 193.5,51.8333 193.5,52.1667 193.5,52.5C 147.477,52.1867 101.477,52.5201 55.5,53.5C 56.5,52.8333 57.5,52.1667 58.5,51.5 Z"/></g>
<g><path style="opacity:1" fill="#b45333" d="M 193.5,52.5 C 195.415,52.2155 197.081,52.5489 198.5,53.5C 196.692,54.9179 196.025,56.9179 196.5,59.5C 145.5,59.5 94.5,59.5 43.5,59.5C 46.9136,56.4598 50.9136,54.4598 55.5,53.5C 101.477,52.5201 147.477,52.1867 193.5,52.5 Z"/></g>
<g><path style="opacity:0.993" fill="#fdc450" d="M 193.5,52.5 C 193.5,52.1667 193.5,51.8333 193.5,51.5C 229.512,45.8915 250.179,60.8915 255.5,96.5C 255.5,110.5 255.5,124.5 255.5,138.5C 245.167,138.5 234.833,138.5 224.5,138.5C 234.185,133.236 234.852,127.069 226.5,120C 222.514,119.501 218.514,119.334 214.5,119.5C 207.833,119.5 201.167,119.5 194.5,119.5C 185.167,119.5 175.833,119.5 166.5,119.5C 162.5,119.5 158.5,119.5 154.5,119.5C 154.5,119.167 154.5,118.833 154.5,118.5C 155.833,118.5 157.167,118.5 158.5,118.5C 181.502,118.667 204.502,118.5 227.5,118C 228.667,117.5 229.5,116.667 230,115.5C 230.816,110.316 230.65,105.316 229.5,100.5C 229.5,100.167 229.5,99.8333 229.5,99.5C 229.72,94.9 229.054,90.5667 227.5,86.5C 227.829,83.7718 227.163,81.4385 225.5,79.5C 223.926,74.6805 221.593,70.3472 218.5,66.5C 216.431,63.4275 213.764,61.0941 210.5,59.5C 207.086,56.4598 203.086,54.4598 198.5,53.5C 197.081,52.5489 195.415,52.2155 193.5,52.5 Z"/></g>
<g><path style="opacity:1" fill="#a1412b" d="M 198.5,53.5 C 203.086,54.4598 207.086,56.4598 210.5,59.5C 206.167,59.5 201.833,59.5 197.5,59.5C 197.5,62.1667 197.5,64.8333 197.5,67.5C 143.5,67.5 89.5,67.5 35.5,67.5C 37.1667,63.8333 39.8333,61.1667 43.5,59.5C 94.5,59.5 145.5,59.5 196.5,59.5C 196.025,56.9179 196.692,54.9179 198.5,53.5 Z"/></g>
<g><path style="opacity:1" fill="#813a2c" d="M 210.5,59.5 C 213.764,61.0941 216.431,63.4275 218.5,66.5C 211.687,67.4912 204.687,67.8245 197.5,67.5C 197.5,64.8333 197.5,62.1667 197.5,59.5C 201.833,59.5 206.167,59.5 210.5,59.5 Z"/></g>
<g><path style="opacity:1" fill="#b45333" d="M 35.5,67.5 C 89.5,67.5 143.5,67.5 197.5,67.5C 197.26,71.6061 196.593,75.6061 195.5,79.5C 139.833,79.5 84.1667,79.5 28.5,79.5C 29.8257,74.8397 32.1591,70.8397 35.5,67.5 Z"/></g>
<g><path style="opacity:1" fill="#9f412b" d="M 218.5,66.5 C 221.593,70.3472 223.926,74.6805 225.5,79.5C 215.5,79.5 205.5,79.5 195.5,79.5C 196.593,75.6061 197.26,71.6061 197.5,67.5C 204.687,67.8245 211.687,67.4912 218.5,66.5 Z"/></g>
<g><path style="opacity:1" fill="#a0412b" d="M 28.5,79.5 C 84.1667,79.5 139.833,79.5 195.5,79.5C 194.226,81.9925 193.56,84.6592 193.5,87.5C 205.012,87.8281 216.346,87.4948 227.5,86.5C 229.054,90.5667 229.72,94.9 229.5,99.5C 214.833,99.5 200.167,99.5 185.5,99.5C 188.072,96.0308 190.406,92.3642 192.5,88.5C 137.001,87.8333 81.6682,87.1667 26.5,86.5C 26.767,84.0347 27.4336,81.7014 28.5,79.5 Z"/></g>
<g><path style="opacity:1" fill="#80392c" d="M 195.5,79.5 C 205.5,79.5 215.5,79.5 225.5,79.5C 227.163,81.4385 227.829,83.7718 227.5,86.5C 216.346,87.4948 205.012,87.8281 193.5,87.5C 193.56,84.6592 194.226,81.9925 195.5,79.5 Z"/></g>
<g><path style="opacity:0.999" fill="#fedf59" d="M 24.5,114.5 C 24.7376,116.404 25.7376,117.738 27.5,118.5C 29.6074,119.468 31.9407,119.802 34.5,119.5C 28.8815,123.989 28.0481,129.322 32,135.5C 32.7504,136.126 33.5838,136.626 34.5,137C 44.1667,137.667 53.8333,137.667 63.5,137C 70.4521,130.638 70.1188,124.804 62.5,119.5C 68.5092,119.334 74.5092,119.501 80.5,120C 87.7415,127.474 86.7415,133.641 77.5,138.5C 56.8333,138.5 36.1667,138.5 15.5,138.5C 7.15757,136.67 1.82424,131.67 -0.5,123.5C -0.5,114.5 -0.5,105.5 -0.5,96.5C 0.879222,93.6141 2.87922,91.1141 5.5,89C 13.0053,85.8362 18.8386,87.6695 23,94.5C 23.1717,101.346 23.6717,108.013 24.5,114.5 Z"/></g>
<g><path style="opacity:1" fill="#b45333" d="M 26.5,86.5 C 81.6682,87.1667 137.001,87.8333 192.5,88.5C 190.406,92.3642 188.072,96.0308 185.5,99.5C 168.991,99.1702 152.658,99.5036 136.5,100.5C 133.718,97.7758 130.385,96.1092 126.5,95.5C 121.948,95.2771 118.281,96.9437 115.5,100.5C 85.3379,99.5019 55.0046,99.1685 24.5,99.5C 24.4379,94.9242 25.1045,90.5909 26.5,86.5 Z"/></g>
<g><path style="opacity:1" fill="#fdf4c4" d="M 126.5,95.5 C 134.673,106.868 137.506,119.534 135,133.5C 133.506,138.224 132.339,142.891 131.5,147.5C 131.666,141.824 131.499,136.157 131,130.5C 126.892,126.28 123.225,126.613 120,131.5C 119.333,136.833 119.333,142.167 120,147.5C 121.318,150.941 123.818,152.275 127.5,151.5C 120.743,160.257 112.076,166.257 101.5,169.5C 99.39,168.547 98.2233,166.881 98,164.5C 96.5048,157.162 99.0048,151.828 105.5,148.5C 106.5,148.5 107.5,148.5 108.5,148.5C 109.489,143.025 109.822,137.358 109.5,131.5C 102.034,130.367 98.0339,126.034 97.5,118.5C 97.7016,113.757 99.7016,110.091 103.5,107.5C 106.764,106.676 110.098,106.342 113.5,106.5C 113.604,104.297 114.27,102.297 115.5,100.5C 118.281,96.9437 121.948,95.2771 126.5,95.5 Z"/></g>
<g><path style="opacity:1" fill="#fef170" d="M 126.5,95.5 C 130.385,96.1092 133.718,97.7758 136.5,100.5C 137.63,102.315 138.296,104.315 138.5,106.5C 141.881,106.46 145.214,106.793 148.5,107.5C 149.793,109.296 151.293,110.963 153,112.5C 154.128,114.345 154.628,116.345 154.5,118.5C 154.5,118.833 154.5,119.167 154.5,119.5C 153.5,126.5 149.5,130.5 142.5,131.5C 142.5,133.833 142.5,136.167 142.5,138.5C 142.5,141.833 142.5,145.167 142.5,148.5C 143.5,148.5 144.5,148.5 145.5,148.5C 142.181,165.153 132.181,175.153 115.5,178.5C 114.661,177.359 113.994,176.026 113.5,174.5C 109.668,173.904 106.001,172.904 102.5,171.5C 102.5,170.833 102.167,170.5 101.5,170.5C 101.5,170.167 101.5,169.833 101.5,169.5C 112.076,166.257 120.743,160.257 127.5,151.5C 129.833,151.167 131.167,149.833 131.5,147.5C 132.339,142.891 133.506,138.224 135,133.5C 137.506,119.534 134.673,106.868 126.5,95.5 Z"/></g>
<g><path style="opacity:1" fill="#a1412b" d="M 24.5,99.5 C 55.0046,99.1685 85.3379,99.5019 115.5,100.5C 114.27,102.297 113.604,104.297 113.5,106.5C 110.098,106.342 106.764,106.676 103.5,107.5C 77.1667,107.5 50.8333,107.5 24.5,107.5C 24.5,104.833 24.5,102.167 24.5,99.5 Z"/></g>
<g><path style="opacity:1" fill="#7f392c" d="M 185.5,99.5 C 200.167,99.5 214.833,99.5 229.5,99.5C 229.5,99.8333 229.5,100.167 229.5,100.5C 229.5,102.833 229.5,105.167 229.5,107.5C 212.497,107.667 195.497,107.5 178.5,107C 181.039,104.63 183.372,102.13 185.5,99.5 Z"/></g>
<g><path style="opacity:1" fill="#b55434" d="M 24.5,107.5 C 50.8333,107.5 77.1667,107.5 103.5,107.5C 99.7016,110.091 97.7016,113.757 97.5,118.5C 74.1667,118.5 50.8333,118.5 27.5,118.5C 25.7376,117.738 24.7376,116.404 24.5,114.5C 24.5,112.167 24.5,109.833 24.5,107.5 Z"/></g>
<g><path style="opacity:1" fill="#b45434" d="M 148.5,107.5 C 158.172,107.334 167.839,107.5 177.5,108C 171.673,112.577 165.34,116.077 158.5,118.5C 157.167,118.5 155.833,118.5 154.5,118.5C 154.628,116.345 154.128,114.345 153,112.5C 151.293,110.963 149.793,109.296 148.5,107.5 Z"/></g>
<g><path style="opacity:1" fill="#a1422b" d="M 185.5,99.5 C 183.372,102.13 181.039,104.63 178.5,107C 195.497,107.5 212.497,107.667 229.5,107.5C 229.5,105.167 229.5,102.833 229.5,100.5C 230.65,105.316 230.816,110.316 230,115.5C 229.5,116.667 228.667,117.5 227.5,118C 204.502,118.5 181.502,118.667 158.5,118.5C 165.34,116.077 171.673,112.577 177.5,108C 167.839,107.5 158.172,107.334 148.5,107.5C 145.214,106.793 141.881,106.46 138.5,106.5C 138.296,104.315 137.63,102.315 136.5,100.5C 152.658,99.5036 168.991,99.1702 185.5,99.5 Z"/></g>
<g><path style="opacity:1" fill="#fff26f" d="M 34.5,119.5 C 43.8333,119.5 53.1667,119.5 62.5,119.5C 70.1188,124.804 70.4521,130.638 63.5,137C 53.8333,137.667 44.1667,137.667 34.5,137C 33.5838,136.626 32.7504,136.126 32,135.5C 28.0481,129.322 28.8815,123.989 34.5,119.5 Z"/></g>
<g><path style="opacity:1" fill="#fbc151" d="M 27.5,118.5 C 50.8333,118.5 74.1667,118.5 97.5,118.5C 98.0339,126.034 102.034,130.367 109.5,131.5C 109.822,137.358 109.489,143.025 108.5,148.5C 108.5,145.167 108.5,141.833 108.5,138.5C 98.1667,138.5 87.8333,138.5 77.5,138.5C 86.7415,133.641 87.7415,127.474 80.5,120C 74.5092,119.501 68.5092,119.334 62.5,119.5C 53.1667,119.5 43.8333,119.5 34.5,119.5C 31.9407,119.802 29.6074,119.468 27.5,118.5 Z"/></g>
<g><path style="opacity:1" fill="#ffc751" d="M 154.5,119.5 C 158.5,119.5 162.5,119.5 166.5,119.5C 159.889,125.299 159.889,131.133 166.5,137C 175.827,137.5 185.161,137.666 194.5,137.5C 195.492,137.328 196.158,137.662 196.5,138.5C 178.833,138.5 161.167,138.5 143.5,138.5C 143.167,138.5 142.833,138.5 142.5,138.5C 142.5,136.167 142.5,133.833 142.5,131.5C 149.5,130.5 153.5,126.5 154.5,119.5 Z"/></g>
<g><path style="opacity:1" fill="#ffdf59" d="M 166.5,119.5 C 175.833,119.5 185.167,119.5 194.5,119.5C 187.954,125.462 187.954,131.462 194.5,137.5C 185.161,137.666 175.827,137.5 166.5,137C 159.889,131.133 159.889,125.299 166.5,119.5 Z"/></g>
<g><path style="opacity:1" fill="#fff26f" d="M 194.5,119.5 C 201.167,119.5 207.833,119.5 214.5,119.5C 221.784,127.183 220.784,133.516 211.5,138.5C 206.5,138.5 201.5,138.5 196.5,138.5C 196.158,137.662 195.492,137.328 194.5,137.5C 187.954,131.462 187.954,125.462 194.5,119.5 Z"/></g>
<g><path style="opacity:1" fill="#ffdf58" d="M 214.5,119.5 C 218.514,119.334 222.514,119.501 226.5,120C 234.852,127.069 234.185,133.236 224.5,138.5C 220.167,138.5 215.833,138.5 211.5,138.5C 220.784,133.516 221.784,127.183 214.5,119.5 Z"/></g>
<g><path style="opacity:1" fill="#ffc650" d="M -0.5,123.5 C 1.82424,131.67 7.15757,136.67 15.5,138.5C 10.1667,138.5 4.83333,138.5 -0.5,138.5C -0.5,133.5 -0.5,128.5 -0.5,123.5 Z"/></g>
<g><path style="opacity:1" fill="#813d2e" d="M 131.5,147.5 C 131.167,149.833 129.833,151.167 127.5,151.5C 123.818,152.275 121.318,150.941 120,147.5C 119.333,142.167 119.333,136.833 120,131.5C 123.225,126.613 126.892,126.28 131,130.5C 131.499,136.157 131.666,141.824 131.5,147.5 Z"/></g>
<g><path style="opacity:1" fill="#ff9a3a" d="M -0.5,138.5 C 4.83333,138.5 10.1667,138.5 15.5,138.5C 36.1667,138.5 56.8333,138.5 77.5,138.5C 87.8333,138.5 98.1667,138.5 108.5,138.5C 108.5,141.833 108.5,145.167 108.5,148.5C 107.5,148.5 106.5,148.5 105.5,148.5C 70.1667,148.5 34.8333,148.5 -0.5,148.5C -0.5,145.167 -0.5,141.833 -0.5,138.5 Z"/></g>
<g><path style="opacity:0.988" fill="#fe9839" d="M 143.5,138.5 C 161.167,138.5 178.833,138.5 196.5,138.5C 201.5,138.5 206.5,138.5 211.5,138.5C 215.833,138.5 220.167,138.5 224.5,138.5C 234.833,138.5 245.167,138.5 255.5,138.5C 255.5,154.5 255.5,170.5 255.5,186.5C 249.182,201.146 240.848,214.479 230.5,226.5C 230.5,206.833 230.5,187.167 230.5,167.5C 234.058,161.526 237.058,155.193 239.5,148.5C 207.507,147.5 175.507,147.167 143.5,147.5C 143.5,144.5 143.5,141.5 143.5,138.5 Z"/></g>
<g><path style="opacity:0.994" fill="#fdad40" d="M -0.5,148.5 C 34.8333,148.5 70.1667,148.5 105.5,148.5C 99.0048,151.828 96.5048,157.162 98,164.5C 98.2233,166.881 99.39,168.547 101.5,169.5C 101.5,169.833 101.5,170.167 101.5,170.5C 100.502,195.995 100.169,221.661 100.5,247.5C 92.5,247.5 84.5,247.5 76.5,247.5C 76.6666,217.498 76.5,187.498 76,157.5C 75.1667,156.667 74.3333,155.833 73.5,155C 57.8333,154.333 42.1667,154.333 26.5,155C 26,155.5 25.5,156 25,156.5C 24.5012,160.486 24.3345,164.486 24.5,168.5C 24.5,194.833 24.5,221.167 24.5,247.5C 16.8261,247.666 9.15943,247.5 1.5,247C 0.955796,246.283 0.28913,245.783 -0.5,245.5C -0.5,239.833 -0.5,234.167 -0.5,228.5C 2.44978,234.968 7.44978,237.135 14.5,235C 17.6626,233.52 19.496,231.02 20,227.5C 20.4998,216.505 20.6665,205.505 20.5,194.5C 20.5,189.167 20.5,183.833 20.5,178.5C 20.6659,173.489 20.4993,168.489 20,163.5C 13.1709,154.232 6.33759,154.232 -0.5,163.5C -0.5,158.5 -0.5,153.5 -0.5,148.5 Z"/></g>
<g><path style="opacity:1" fill="#fead3f" d="M 142.5,138.5 C 142.833,138.5 143.167,138.5 143.5,138.5C 143.5,141.5 143.5,144.5 143.5,147.5C 175.507,147.167 207.507,147.5 239.5,148.5C 237.058,155.193 234.058,161.526 230.5,167.5C 230.665,164.15 230.498,160.817 230,157.5C 229.5,156.333 228.667,155.5 227.5,155C 211.833,154.333 196.167,154.333 180.5,155C 179.177,155.816 178.511,156.983 178.5,158.5C 177.833,183.337 177.167,208.337 176.5,233.5C 169.405,238.216 161.738,241.549 153.5,243.5C 153.831,217.995 153.498,192.661 152.5,167.5C 156.651,158.799 154.318,152.466 145.5,148.5C 144.5,148.5 143.5,148.5 142.5,148.5C 142.5,145.167 142.5,141.833 142.5,138.5 Z"/></g>
<g><path style="opacity:1" fill="#fddd59" d="M 145.5,148.5 C 154.318,152.466 156.651,158.799 152.5,167.5C 152.167,168.167 151.833,168.833 151.5,169.5C 147.738,172.524 143.405,174.19 138.5,174.5C 135.484,182.342 129.818,185.509 121.5,184C 119.004,182.669 117.004,180.836 115.5,178.5C 132.181,175.153 142.181,165.153 145.5,148.5 Z"/></g>
<g><path style="opacity:1" fill="#a2422b" d="M 76.5,247.5 C 62.5,247.5 48.5,247.5 34.5,247.5C 56.6964,225.267 66.6964,198.267 64.5,166.5C 52.1622,166.333 39.8288,166.5 27.5,167C 26.4734,167.513 25.4734,168.013 24.5,168.5C 24.3345,164.486 24.5012,160.486 25,156.5C 25.5,156 26,155.5 26.5,155C 42.1667,154.333 57.8333,154.333 73.5,155C 74.3333,155.833 75.1667,156.667 76,157.5C 76.5,187.498 76.6666,217.498 76.5,247.5 Z"/></g>
<g><path style="opacity:1" fill="#a2422b" d="M 230.5,167.5 C 230.5,187.167 230.5,206.833 230.5,226.5C 230.5,233.5 230.5,240.5 230.5,247.5C 216.5,247.5 202.5,247.5 188.5,247.5C 211.023,225.274 220.69,198.274 217.5,166.5C 205.495,166.333 193.495,166.5 181.5,167C 180.309,167.698 179.309,168.531 178.5,169.5C 178.5,165.833 178.5,162.167 178.5,158.5C 178.511,156.983 179.177,155.816 180.5,155C 196.167,154.333 211.833,154.333 227.5,155C 228.667,155.5 229.5,156.333 230,157.5C 230.498,160.817 230.665,164.15 230.5,167.5 Z"/></g>
<g><path style="opacity:1" fill="#ffc650" d="M 20.5,178.5 C 13.4625,169.268 6.46248,169.268 -0.5,178.5C -0.5,173.5 -0.5,168.5 -0.5,163.5C 6.33759,154.232 13.1709,154.232 20,163.5C 20.4993,168.489 20.6659,173.489 20.5,178.5 Z"/></g>
<g><path style="opacity:1" fill="#b45333" d="M 34.5,247.5 C 31.1667,247.5 27.8333,247.5 24.5,247.5C 24.5,221.167 24.5,194.833 24.5,168.5C 25.4734,168.013 26.4734,167.513 27.5,167C 39.8288,166.5 52.1622,166.333 64.5,166.5C 66.6964,198.267 56.6964,225.267 34.5,247.5 Z"/></g>
<g><path style="opacity:1" fill="#b45333" d="M 188.5,247.5 C 185.167,247.5 181.833,247.5 178.5,247.5C 178.5,221.5 178.5,195.5 178.5,169.5C 179.309,168.531 180.309,167.698 181.5,167C 193.495,166.5 205.495,166.333 217.5,166.5C 220.69,198.274 211.023,225.274 188.5,247.5 Z"/></g>
<g><path style="opacity:1" fill="#a1412b" d="M 151.5,169.5 C 152.498,195.328 152.831,221.328 152.5,247.5C 138.833,247.5 125.167,247.5 111.5,247.5C 129.546,229.756 139.546,208.09 141.5,182.5C 140.167,182.5 138.833,182.5 137.5,182.5C 136.614,189.316 132.614,192.982 125.5,193.5C 119.393,192.729 115.393,189.395 113.5,183.5C 109.188,182.986 105.188,181.652 101.5,179.5C 101.194,176.615 101.527,173.948 102.5,171.5C 106.001,172.904 109.668,173.904 113.5,174.5C 113.994,176.026 114.661,177.359 115.5,178.5C 117.004,180.836 119.004,182.669 121.5,184C 129.818,185.509 135.484,182.342 138.5,174.5C 143.405,174.19 147.738,172.524 151.5,169.5 Z"/></g>
<g><path style="opacity:1" fill="#ffdf58" d="M 20.5,178.5 C 20.5,183.833 20.5,189.167 20.5,194.5C 17.3259,202.47 11.6593,204.637 3.5,201C 2.26683,199.333 0.933498,197.833 -0.5,196.5C -0.5,190.5 -0.5,184.5 -0.5,178.5C 6.46248,169.268 13.4625,169.268 20.5,178.5 Z"/></g>
<g><path style="opacity:1" fill="#c16632" d="M 152.5,167.5 C 153.498,192.661 153.831,217.995 153.5,243.5C 153.5,244.833 153.5,246.167 153.5,247.5C 153.167,247.5 152.833,247.5 152.5,247.5C 152.831,221.328 152.498,195.328 151.5,169.5C 151.833,168.833 152.167,168.167 152.5,167.5 Z"/></g>
<g><path style="opacity:0.994" fill="#e7913c" d="M 101.5,170.5 C 102.167,170.5 102.5,170.833 102.5,171.5C 101.527,173.948 101.194,176.615 101.5,179.5C 101.5,202.167 101.5,224.833 101.5,247.5C 101.167,247.5 100.833,247.5 100.5,247.5C 100.169,221.661 100.502,195.995 101.5,170.5 Z"/></g>
<g><path style="opacity:1" fill="#b45333" d="M 101.5,179.5 C 105.188,181.652 109.188,182.986 113.5,183.5C 115.393,189.395 119.393,192.729 125.5,193.5C 132.614,192.982 136.614,189.316 137.5,182.5C 138.833,182.5 140.167,182.5 141.5,182.5C 139.546,208.09 129.546,229.756 111.5,247.5C 108.167,247.5 104.833,247.5 101.5,247.5C 101.5,224.833 101.5,202.167 101.5,179.5 Z"/></g>
<g><path style="opacity:1" fill="#f97c15" d="M 255.5,186.5 C 255.5,205.833 255.5,225.167 255.5,244.5C 254.691,245.469 253.691,246.302 252.5,247C 245.174,247.5 237.841,247.666 230.5,247.5C 230.5,240.5 230.5,233.5 230.5,226.5C 240.848,214.479 249.182,201.146 255.5,186.5 Z"/></g>
<g><path style="opacity:1" fill="#ffc650" d="M 20.5,194.5 C 20.6665,205.505 20.4998,216.505 20,227.5C 19.496,231.02 17.6626,233.52 14.5,235C 7.44978,237.135 2.44978,234.968 -0.5,228.5C -0.5,217.833 -0.5,207.167 -0.5,196.5C 0.933498,197.833 2.26683,199.333 3.5,201C 11.6593,204.637 17.3259,202.47 20.5,194.5 Z"/></g>
<g><path style="opacity:1" fill="#f8963a" d="M 178.5,158.5 C 178.5,162.167 178.5,165.833 178.5,169.5C 178.5,195.5 178.5,221.5 178.5,247.5C 170.167,247.5 161.833,247.5 153.5,247.5C 153.5,246.167 153.5,244.833 153.5,243.5C 161.738,241.549 169.405,238.216 176.5,233.5C 177.167,208.337 177.833,183.337 178.5,158.5 Z"/></g>
</svg>
