<?xml version="1.0" encoding="UTF-8"?>
<!DOCTYPE svg PUBLIC "-//W3C//DTD SVG 1.1//EN" "http://www.w3.org/Graphics/SVG/1.1/DTD/svg11.dtd">
<svg xmlns="http://www.w3.org/2000/svg" version="1.1" viewBox="0 0 277 328" width="277px" height="328px" style="shape-rendering:geometricPrecision; text-rendering:geometricPrecision; image-rendering:optimizeQuality; fill-rule:evenodd; clip-rule:evenodd" xmlns:xlink="http://www.w3.org/1999/xlink">
<g><path style="opacity:0.977" fill="#aae134" d="M 142.5,33.5 C 164.768,31.6388 178.934,41.3055 185,62.5C 187.058,82.8937 178.558,96.727 159.5,104C 136.266,107.974 121.1,98.8068 114,76.5C 112.062,54.3313 121.562,39.998 142.5,33.5 Z"/></g>
<g><path style="opacity:1" fill="#6dc902" d="M 161.5,55.5 C 166.494,55.329 168.328,57.6624 167,62.5C 160.5,69 154,75.5 147.5,82C 145.833,82.6667 144.167,82.6667 142.5,82C 139,78.5 135.5,75 132,71.5C 130.5,66.3333 132.333,64.5 137.5,66C 139.727,68.9349 142.394,70.9349 145.5,72C 151.036,66.6314 156.37,61.1314 161.5,55.5 Z"/></g>
<g><path style="opacity:0.982" fill="#59c7fe" d="M 50.5,120.5 C 49.1667,143.5 49.1667,166.5 50.5,189.5C 50.5,192.167 50.5,194.833 50.5,197.5C 38.8333,197.5 27.1667,197.5 15.5,197.5C 15.5,169.167 15.5,140.833 15.5,112.5C 27.1667,112.5 38.8333,112.5 50.5,112.5C 50.5,115.167 50.5,117.833 50.5,120.5 Z"/></g>
<g><path style="opacity:0.98" fill="#4ca5fe" d="M 276.5,112.5 C 276.5,140.833 276.5,169.167 276.5,197.5C 267.167,197.5 257.833,197.5 248.5,197.5C 248.5,194.833 248.5,192.167 248.5,189.5C 249.833,166.5 249.833,143.5 248.5,120.5C 248.5,117.833 248.5,115.167 248.5,112.5C 257.833,112.5 267.167,112.5 276.5,112.5 Z"/></g>
<g><path style="opacity:0.993" fill="#feccbf" d="M 50.5,120.5 C 69.8362,120.333 89.1695,120.5 108.5,121C 125.027,121.598 138.694,128.098 149.5,140.5C 136.922,154.581 123.755,168.248 110,181.5C 105.981,188 107.147,193.5 113.5,198C 117.782,198.965 121.782,198.298 125.5,196C 133.348,187.985 141.348,180.152 149.5,172.5C 168.986,191.486 188.32,210.653 207.5,230C 208.527,230.513 209.527,231.013 210.5,231.5C 217.11,235.753 219.277,241.753 217,249.5C 215.833,251.333 214.333,252.833 212.5,254C 208.413,254.762 204.413,254.596 200.5,253.5C 191.069,242.566 181.069,232.066 170.5,222C 165.338,220.576 163.171,222.41 164,227.5C 175.702,239.369 187.535,251.035 199.5,262.5C 198.327,264.504 196.66,266.004 194.5,267C 190.779,267.678 187.112,267.511 183.5,266.5C 174.736,256.233 165.403,246.4 155.5,237C 150.502,235.67 148.336,237.504 149,242.5C 160.035,253.368 170.869,264.368 181.5,275.5C 177.354,280.691 172.354,281.691 166.5,278.5C 157.73,269.228 148.73,260.062 139.5,251C 136.506,250.635 134.506,251.969 133.5,255C 143.38,266.38 154.046,276.88 165.5,286.5C 160.716,293.024 154.716,294.19 147.5,290C 123.653,266.32 99.9861,242.486 76.5,218.5C 70.0161,209.865 66.0161,200.198 64.5,189.5C 59.8333,189.5 55.1667,189.5 50.5,189.5C 49.1667,166.5 49.1667,143.5 50.5,120.5 Z"/></g>
<g><path style="opacity:0.994" fill="#feab93" d="M 248.5,120.5 C 249.833,143.5 249.833,166.5 248.5,189.5C 243.833,189.5 239.167,189.5 234.5,189.5C 233.367,198.064 230.534,206.064 226,213.5C 221.372,219.962 216.205,225.962 210.5,231.5C 209.527,231.013 208.527,230.513 207.5,230C 188.32,210.653 168.986,191.486 149.5,172.5C 141.348,180.152 133.348,187.985 125.5,196C 121.782,198.298 117.782,198.965 113.5,198C 107.147,193.5 105.981,188 110,181.5C 123.755,168.248 136.922,154.581 149.5,140.5C 160.306,128.098 173.973,121.598 190.5,121C 209.83,120.5 229.164,120.333 248.5,120.5 Z"/></g>
<g><path style="opacity:1" fill="#ffac95" d="M 200.5,253.5 C 200.736,256.609 200.403,259.609 199.5,262.5C 187.535,251.035 175.702,239.369 164,227.5C 163.171,222.41 165.338,220.576 170.5,222C 181.069,232.066 191.069,242.566 200.5,253.5 Z"/></g>
<g><path style="opacity:1" fill="#ffad95" d="M 183.5,266.5 C 183.932,269.877 183.265,272.877 181.5,275.5C 170.869,264.368 160.035,253.368 149,242.5C 148.336,237.504 150.502,235.67 155.5,237C 165.403,246.4 174.736,256.233 183.5,266.5 Z"/></g>
<g><path style="opacity:0.999" fill="#ffab94" d="M 166.5,278.5 C 166.721,281.279 166.388,283.946 165.5,286.5C 154.046,276.88 143.38,266.38 133.5,255C 134.506,251.969 136.506,250.635 139.5,251C 148.73,260.062 157.73,269.228 166.5,278.5 Z"/></g>
</svg>
