<?xml version="1.0" encoding="UTF-8"?>
<!DOCTYPE svg PUBLIC "-//W3C//DTD SVG 1.1//EN" "http://www.w3.org/Graphics/SVG/1.1/DTD/svg11.dtd">
<svg xmlns="http://www.w3.org/2000/svg" version="1.1" viewBox="0 0 253 262" width="253px" height="262px" style="shape-rendering:geometricPrecision; text-rendering:geometricPrecision; image-rendering:optimizeQuality; fill-rule:evenodd; clip-rule:evenodd" xmlns:xlink="http://www.w3.org/1999/xlink">
<g><path style="opacity:0.903" fill="#def6fd" d="M 225.5,16.5 C 231,15.8314 233.167,18.1647 232,23.5C 224.59,29.4542 217.09,35.2875 209.5,41C 207.098,41.8141 204.765,41.6474 202.5,40.5C 201.515,38.9017 201.349,37.235 202,35.5C 209.732,28.9235 217.565,22.5902 225.5,16.5 Z"/></g>
<g><path style="opacity:0.891" fill="#f2fbff" d="M 31.5,16.5 C 33.5273,16.3379 35.5273,16.5045 37.5,17C 45.1316,23.0577 52.6316,29.2244 60,35.5C 60.6667,37.1667 60.6667,38.8333 60,40.5C 57.5991,41.6023 55.0991,41.769 52.5,41C 44.8684,34.9423 37.3684,28.7756 30,22.5C 29.2516,20.1599 29.7516,18.1599 31.5,16.5 Z"/></g>
<g><path style="opacity:0.979" fill="#ffcdbe" d="M 177.5,112.5 C 174.167,115.167 171.167,118.167 168.5,121.5C 160.396,130.105 152.063,138.605 143.5,147C 140.95,148.442 138.284,149.608 135.5,150.5C 134.702,150.957 134.369,151.624 134.5,152.5C 130.527,152.317 126.527,153.15 122.5,155C 116.595,161.397 110.929,167.897 105.5,174.5C 101.122,171.641 97.1216,168.308 93.5,164.5C 94.2389,164.631 94.9056,164.464 95.5,164C 97.7954,160.703 100.462,157.703 103.5,155C 111.651,152.372 119.651,149.372 127.5,146C 144,128.167 160.5,110.333 177,92.5C 179.312,84.2468 178.646,76.2468 175,68.5C 171.4,64.4515 166.9,62.7849 161.5,63.5C 163.796,52.6358 159.462,47.4691 148.5,48C 148,47.5 147.5,47 147,46.5C 146.667,43.1667 146.333,39.8333 146,36.5C 143.694,34.1119 140.861,33.1119 137.5,33.5C 135.117,33.6374 132.783,33.9707 130.5,34.5C 130.953,33.5416 131.619,32.7083 132.5,32C 136.918,30.1935 141.251,28.1935 145.5,26C 157.344,23.678 162.677,28.5113 161.5,40.5C 172.008,40.5134 176.841,45.8468 176,56.5C 183.948,55.0655 188.448,58.3989 189.5,66.5C 189.491,69.684 188.491,72.5173 186.5,75C 196.669,76.1599 200.169,81.6599 197,91.5C 190.634,98.6968 184.134,105.697 177.5,112.5 Z"/></g>
<g><path style="opacity:0.958" fill="#f4afa1" d="M 128.5,35.5 C 123.463,40.5393 118.129,45.206 112.5,49.5C 109.833,47.5 107.5,45.1667 105.5,42.5C 101.44,38.8062 100.606,34.4728 103,29.5C 105.917,27.6067 109.084,27.1067 112.5,28C 117.735,30.7848 123.068,33.2848 128.5,35.5 Z"/></g>
<g><path style="opacity:0.999" fill="#fedece" d="M 93.5,164.5 C 80.8744,154.209 68.8744,143.209 57.5,131.5C 63.1667,126.5 68.5,121.167 73.5,115.5C 75.7541,116.415 77.7541,117.748 79.5,119.5C 89.0248,120.973 92.6915,116.973 90.5,107.5C 101.301,107.714 105.301,102.714 102.5,92.5C 102.435,92.0618 102.601,91.7284 103,91.5C 103.708,92.3805 104.542,93.0472 105.5,93.5C 116.431,94.3994 120.931,89.3994 119,78.5C 117.5,77 116,75.5 114.5,74C 124.189,72.7845 127.356,67.6178 124,58.5C 120.188,55.3596 116.355,52.3596 112.5,49.5C 118.129,45.206 123.463,40.5393 128.5,35.5C 128.842,34.6618 129.508,34.3284 130.5,34.5C 132.783,33.9707 135.117,33.6374 137.5,33.5C 140.861,33.1119 143.694,34.1119 146,36.5C 146.333,39.8333 146.667,43.1667 147,46.5C 147.5,47 148,47.5 148.5,48C 159.462,47.4691 163.796,52.6358 161.5,63.5C 166.9,62.7849 171.4,64.4515 175,68.5C 178.646,76.2468 179.312,84.2468 177,92.5C 160.5,110.333 144,128.167 127.5,146C 119.651,149.372 111.651,152.372 103.5,155C 100.462,157.703 97.7954,160.703 95.5,164C 94.9056,164.464 94.2389,164.631 93.5,164.5 Z"/></g>
<g><path style="opacity:0.991" fill="#f3ae9f" d="M 95.5,43.5 C 101.478,48.6359 107.645,53.6359 114,58.5C 116.541,63.5718 115.708,67.9051 111.5,71.5C 104.796,66.4513 98.1297,61.4513 91.5,56.5C 89.3503,51.0211 90.6836,46.6878 95.5,43.5 Z"/></g>
<g><path style="opacity:1" fill="#ef9b8b" d="M 105.5,42.5 C 107.5,45.1667 109.833,47.5 112.5,49.5C 116.355,52.3596 120.188,55.3596 124,58.5C 127.356,67.6178 124.189,72.7845 114.5,74C 116,75.5 117.5,77 119,78.5C 120.931,89.3994 116.431,94.3994 105.5,93.5C 106.412,91.4048 107.579,89.4048 109,87.5C 109.817,84.0357 109.483,80.7024 108,77.5C 100.188,70.6967 92.355,64.0301 84.5,57.5C 86.717,56.6314 89.0504,56.298 91.5,56.5C 98.1297,61.4513 104.796,66.4513 111.5,71.5C 115.708,67.9051 116.541,63.5718 114,58.5C 107.645,53.6359 101.478,48.6359 95.5,43.5C 98.6248,42.5206 101.958,42.1872 105.5,42.5 Z"/></g>
<g><path style="opacity:0.988" fill="#f3ae9f" d="M 84.5,57.5 C 92.355,64.0301 100.188,70.6967 108,77.5C 109.483,80.7024 109.817,84.0357 109,87.5C 107.579,89.4048 106.412,91.4048 105.5,93.5C 104.542,93.0472 103.708,92.3805 103,91.5C 102.601,91.7284 102.435,92.0618 102.5,92.5C 95.1742,85.849 87.5075,79.5156 79.5,73.5C 77.1722,66.8205 78.8389,61.4872 84.5,57.5 Z"/></g>
<g><path style="opacity:0.885" fill="#ddf5fd" d="M 25.5,62.5 C 31.6059,63.0878 37.6059,64.2545 43.5,66C 44.5914,68.0639 44.7581,70.2305 44,72.5C 43.044,73.8941 41.7106,74.5607 40,74.5C 35.0726,73.7146 30.2393,72.5479 25.5,71C 22.8987,68.1705 22.8987,65.3371 25.5,62.5 Z"/></g>
<g><path style="opacity:0.891" fill="#f1faff" d="M 231.5,62.5 C 237.71,62.0412 239.71,64.7078 237.5,70.5C 232.667,72.3353 227.667,73.6687 222.5,74.5C 217.207,73.2077 216.207,70.3743 219.5,66C 223.593,64.7578 227.593,63.5911 231.5,62.5 Z"/></g>
<g><path style="opacity:0.99" fill="#f3afa0" d="M 71.5,74.5 C 78.1705,80.2674 85.0038,85.9341 92,91.5C 94,95.5 94,99.5 92,103.5C 91,104.167 90,104.833 89,105.5C 83.5427,100.863 77.7093,96.8631 71.5,93.5C 64.8441,87.1206 64.8441,80.7873 71.5,74.5 Z"/></g>
<g><path style="opacity:0.998" fill="#ef9b8b" d="M 79.5,73.5 C 87.5075,79.5156 95.1742,85.849 102.5,92.5C 105.301,102.714 101.301,107.714 90.5,107.5C 92.6915,116.973 89.0248,120.973 79.5,119.5C 81.3037,115.737 81.8037,111.737 81,107.5C 76.6451,103.644 72.1451,99.9774 67.5,96.5C 66.6143,95.675 66.281,94.675 66.5,93.5C 68.1667,93.5 69.8333,93.5 71.5,93.5C 77.7093,96.8631 83.5427,100.863 89,105.5C 90,104.833 91,104.167 92,103.5C 94,99.5 94,95.5 92,91.5C 85.0038,85.9341 78.1705,80.2674 71.5,74.5C 74.0545,73.612 76.7212,73.2786 79.5,73.5 Z"/></g>
<g><path style="opacity:0.978" fill="#f4afa0" d="M 66.5,93.5 C 66.281,94.675 66.6143,95.675 67.5,96.5C 72.1451,99.9774 76.6451,103.644 81,107.5C 81.8037,111.737 81.3037,115.737 79.5,119.5C 77.7541,117.748 75.7541,116.415 73.5,115.5C 68.2466,113.295 64.4133,109.628 62,104.5C 61.0721,99.7726 62.5721,96.1059 66.5,93.5 Z"/></g>
<g><path style="opacity:0.997" fill="#ef9a8a" d="M 177.5,112.5 C 201.132,136.632 224.965,160.632 249,184.5C 250.459,186.432 251.625,188.432 252.5,190.5C 252.5,206.833 252.5,223.167 252.5,239.5C 251.028,241.134 249.362,242.634 247.5,244C 240.508,244.5 233.508,244.666 226.5,244.5C 228.568,243.625 230.568,242.459 232.5,241C 233.191,239.933 233.691,238.766 234,237.5C 234.955,221.1 234.622,204.766 233,188.5C 212.029,166.528 190.695,144.861 169,123.5C 168.536,122.906 168.369,122.239 168.5,121.5C 171.167,118.167 174.167,115.167 177.5,112.5 Z"/></g>
<g><path style="opacity:0.995" fill="#f4ae9f" d="M 168.5,121.5 C 168.369,122.239 168.536,122.906 169,123.5C 190.695,144.861 212.029,166.528 233,188.5C 234.622,204.766 234.955,221.1 234,237.5C 233.691,238.766 233.191,239.933 232.5,241C 230.568,242.459 228.568,243.625 226.5,244.5C 219.492,244.666 212.492,244.5 205.5,244C 203.833,243 202.167,242 200.5,241C 178.283,211.623 156.283,182.123 134.5,152.5C 134.369,151.624 134.702,150.957 135.5,150.5C 138.284,149.608 140.95,148.442 143.5,147C 152.063,138.605 160.396,130.105 168.5,121.5 Z"/></g>
<g><path style="opacity:0.988" fill="#fe6670" d="M 57.5,131.5 C 68.8744,143.209 80.8744,154.209 93.5,164.5C 97.1216,168.308 101.122,171.641 105.5,174.5C 108.575,177.461 109.075,180.794 107,184.5C 105.167,186.333 103.333,188.167 101.5,190C 98.7395,190.722 96.0728,190.555 93.5,189.5C 93.631,188.761 93.4643,188.094 93,187.5C 89.3756,184.611 85.8756,181.611 82.5,178.5C 70.137,166.802 57.4704,155.469 44.5,144.5C 43.8004,138.634 46.1338,134.134 51.5,131C 53.5976,130.322 55.5976,130.489 57.5,131.5 Z"/></g>
<g><path style="opacity:0.995" fill="#ffdece" d="M 44.5,144.5 C 57.4704,155.469 70.137,166.802 82.5,178.5C 82.2914,179.922 81.7914,181.255 81,182.5C 65.7608,200.65 50.7608,218.983 36,237.5C 33.0022,240.738 29.5022,243.071 25.5,244.5C 18.4921,244.666 11.4921,244.5 4.5,244C 2.63834,242.634 0.971672,241.134 -0.5,239.5C -0.5,223.167 -0.5,206.833 -0.5,190.5C 13.775,174.557 28.775,159.224 44.5,144.5 Z"/></g>
<g><path style="opacity:0.985" fill="#ffcebf" d="M 82.5,178.5 C 85.8756,181.611 89.3756,184.611 93,187.5C 93.4643,188.094 93.631,188.761 93.5,189.5C 79.5336,207.245 65.2002,224.745 50.5,242C 49.1667,242.667 47.8333,243.333 46.5,244C 39.5079,244.5 32.5079,244.666 25.5,244.5C 29.5022,243.071 33.0022,240.738 36,237.5C 50.7608,218.983 65.7608,200.65 81,182.5C 81.7914,181.255 82.2914,179.922 82.5,178.5 Z"/></g>
</svg>
