<?xml version="1.0" encoding="UTF-8"?>
<!DOCTYPE svg PUBLIC "-//W3C//DTD SVG 1.1//EN" "http://www.w3.org/Graphics/SVG/1.1/DTD/svg11.dtd">
<svg xmlns="http://www.w3.org/2000/svg" version="1.1" viewBox="0 0 260 311" width="260px" height="311px" style="shape-rendering:geometricPrecision; text-rendering:geometricPrecision; image-rendering:optimizeQuality; fill-rule:evenodd; clip-rule:evenodd" xmlns:xlink="http://www.w3.org/1999/xlink">
<g><path style="opacity:0.793" fill="#ffe566" d="M 226.5,17.5 C 228.948,17.0847 230.281,18.0847 230.5,20.5C 230.255,22.6633 229.255,24.33 227.5,25.5C 226.054,24.8291 225.388,23.6624 225.5,22C 225.773,20.4672 226.106,18.9672 226.5,17.5 Z"/></g>
<g><path style="opacity:0.81" fill="#ffe567" d="M 217.5,20.5 C 220.585,20.542 222.919,21.8753 224.5,24.5C 223.1,28.1542 221.1,28.4876 218.5,25.5C 216.374,24.0908 216.04,22.4241 217.5,20.5 Z"/></g>
<g><path style="opacity:0.788" fill="#ffe666" d="M 228.5,26.5 C 232.837,26.9688 234.504,29.1354 233.5,33C 228.577,33.226 226.91,31.0594 228.5,26.5 Z"/></g>
<g><path style="opacity:0.785" fill="#ffe76a" d="M 222.5,28.5 C 226.797,29.2879 227.63,31.6212 225,35.5C 222.833,37 221.333,36.5 220.5,34C 221.077,32.0999 221.744,30.2666 222.5,28.5 Z"/></g>
<g><path style="opacity:0.905" fill="#cbb2ff" d="M 225.5,54.5 C 224.432,53.5655 223.099,53.2322 221.5,53.5C 222.187,48.7262 224.187,44.7262 227.5,41.5C 231.47,42.7679 235.47,43.9346 239.5,45C 241.18,45.3468 242.18,46.3468 242.5,48C 241.465,51.8997 239.798,55.3997 237.5,58.5C 233.47,57.1616 229.47,55.8283 225.5,54.5 Z"/></g>
<g><path style="opacity:0.951" fill="#ff83b0" d="M 261.5,45.5 C 259.604,49.2974 258.27,53.2974 257.5,57.5C 254.421,56.696 251.421,55.696 248.5,54.5C 247.167,53.8333 245.833,53.1667 244.5,52.5C 245.301,48.7653 246.301,45.0986 247.5,41.5C 252.54,41.8504 257.206,43.1837 261.5,45.5 Z"/></g>
<g><path style="opacity:0.963" fill="#fc6096" d="M 261.5,45.5 C 265.958,45.9303 270.124,47.2637 274,49.5C 273.534,53.3962 272.368,57.0629 270.5,60.5C 268.784,60.3713 267.117,60.038 265.5,59.5C 262.779,59.0372 260.112,58.3705 257.5,57.5C 258.27,53.2974 259.604,49.2974 261.5,45.5 Z"/></g>
<g><path style="opacity:0.824" fill="#aa80ff" d="M 221.5,53.5 C 223.099,53.2322 224.432,53.5655 225.5,54.5C 223.686,60.7795 221.353,66.7795 218.5,72.5C 218.717,69.5794 218.051,66.9128 216.5,64.5C 217.973,60.7492 219.64,57.0825 221.5,53.5 Z"/></g>
<g><path style="opacity:0.88" fill="#fc6196" d="M 244.5,52.5 C 245.833,53.1667 247.167,53.8333 248.5,54.5C 246.072,61.012 243.405,67.3454 240.5,73.5C 240.632,70.4299 240.299,67.4299 239.5,64.5C 240.655,60.2025 242.321,56.2025 244.5,52.5 Z"/></g>
<g><path style="opacity:0.845" fill="#fc1d80" d="M 265.5,59.5 C 267.117,60.038 268.784,60.3713 270.5,60.5C 268.362,66.9152 266.029,73.2485 263.5,79.5C 262.469,77.0392 261.802,74.3725 261.5,71.5C 263.031,67.5738 264.364,63.5738 265.5,59.5 Z"/></g>
<g><path style="opacity:0.94" fill="#ccb3ff" d="M 216.5,64.5 C 218.051,66.9128 218.717,69.5794 218.5,72.5C 218.108,76.3912 215.941,78.3912 212,78.5C 204.56,77.3085 201.893,72.9752 204,65.5C 205.259,62.7832 207.426,61.4499 210.5,61.5C 213.102,61.4672 215.102,62.4672 216.5,64.5 Z"/></g>
<g><path style="opacity:0.938" fill="#fe82af" d="M 239.5,64.5 C 240.299,67.4299 240.632,70.4299 240.5,73.5C 240.376,75.5816 239.376,77.0816 237.5,78C 230.423,79.2691 226.423,76.2691 225.5,69C 228.018,60.9 232.684,59.4 239.5,64.5 Z"/></g>
<g><path style="opacity:0.958" fill="#fc5f95" d="M 261.5,71.5 C 261.802,74.3725 262.469,77.0392 263.5,79.5C 261.821,85.0069 258.154,86.8402 252.5,85C 246.476,79.9251 246.143,74.5918 251.5,69C 255.421,67.8613 258.754,68.6946 261.5,71.5 Z"/></g>
<g><path style="opacity:0.828" fill="#ffcc66" d="M 242.5,82.5 C 248.402,83.6275 248.902,86.2941 244,90.5C 242.701,89.91 241.868,88.91 241.5,87.5C 242.046,85.8653 242.38,84.1986 242.5,82.5 Z"/></g>
<g><path style="opacity:0.748" fill="#ffcd6a" d="M 233.5,85.5 C 237.939,85.4154 240.105,87.4154 240,91.5C 235.593,92.2702 233.427,90.2702 233.5,85.5 Z"/></g>
<g><path style="opacity:0.798" fill="#ffcd66" d="M 244.5,91.5 C 249.063,91.72 250.73,93.8866 249.5,98C 244.919,97.9308 243.252,95.7641 244.5,91.5 Z"/></g>
<g><path style="opacity:0.758" fill="#ffcc65" d="M 238.5,93.5 C 239.822,93.33 240.989,93.6634 242,94.5C 242.334,96.8473 242.167,99.1806 241.5,101.5C 240.178,101.67 239.011,101.337 238,100.5C 237.444,98.1152 237.61,95.7819 238.5,93.5 Z"/></g>
<g><path style="opacity:0.931" fill="#fc6096" d="M 72.5,115.5 C 70.5956,115.738 69.2623,116.738 68.5,118.5C 66.7837,120.025 64.7837,121.025 62.5,121.5C 61.9459,118.254 60.9459,115.254 59.5,112.5C 62.2624,110.275 65.2624,108.275 68.5,106.5C 70.5781,109.106 71.9115,112.106 72.5,115.5 Z"/></g>
<g><path style="opacity:0.923" fill="#fe82b0" d="M 59.5,112.5 C 60.9459,115.254 61.9459,118.254 62.5,121.5C 60.5,123.167 58.5,124.833 56.5,126.5C 55.1667,126.833 53.8333,127.167 52.5,127.5C 51.8379,124.852 51.1712,122.185 50.5,119.5C 52.9093,116.456 55.9093,114.122 59.5,112.5 Z"/></g>
<g><path style="opacity:0.825" fill="#fc1e80" d="M 72.5,115.5 C 73.6586,120.468 74.6586,125.468 75.5,130.5C 73.9991,129.248 72.3325,128.248 70.5,127.5C 70.3003,124.37 69.6336,121.37 68.5,118.5C 69.2623,116.738 70.5956,115.738 72.5,115.5 Z"/></g>
<g><path style="opacity:0.954" fill="#d5cdd4" d="M 159.5,123.5 C 152.766,126.371 146.432,130.037 140.5,134.5C 133.197,133.402 125.864,133.235 118.5,134C 115.494,134.332 112.66,135.166 110,136.5C 109.601,136.272 109.435,135.938 109.5,135.5C 119.393,118.918 133.726,113.418 152.5,119C 155.239,120.026 157.572,121.526 159.5,123.5 Z"/></g>
<g><path style="opacity:0.758" fill="#ffe668" d="M 32.5,122.5 C 31.5416,122.953 30.7083,123.619 30,124.5C 28.1599,122.835 27.4932,120.835 28,118.5C 28.7175,117.549 29.5509,117.383 30.5,118C 31.5822,119.33 32.2488,120.83 32.5,122.5 Z"/></g>
<g><path style="opacity:0.683" fill="#ffe566" d="M 32.5,122.5 C 34.4352,121.85 36.4352,121.517 38.5,121.5C 38.6841,124.321 37.3507,125.988 34.5,126.5C 32.8888,125.68 32.2222,124.346 32.5,122.5 Z"/></g>
<g><path style="opacity:0.986" fill="#d8d1d7" d="M 161.5,123.5 C 176.937,121.848 188.104,128.182 195,142.5C 195.813,144.436 196.313,146.436 196.5,148.5C 200.329,164.585 199.829,180.585 195,196.5C 188.95,213.41 177.117,222.41 159.5,223.5C 176.254,216.376 186.088,203.709 189,185.5C 192.6,169.023 190.6,153.356 183,138.5C 177.608,130.939 170.441,125.939 161.5,123.5 Z"/></g>
<g><path style="opacity:0.994" fill="#e5e1e5" d="M 159.5,123.5 C 160.167,123.5 160.833,123.5 161.5,123.5C 170.441,125.939 177.608,130.939 183,138.5C 190.6,153.356 192.6,169.023 189,185.5C 186.088,203.709 176.254,216.376 159.5,223.5C 154.548,223.683 150.048,222.349 146,219.5C 137.685,224.654 128.852,228.32 119.5,230.5C 112.227,230.566 105.227,229.232 98.5,226.5C 97.7025,226.957 97.3691,227.624 97.5,228.5C 94.305,227.961 91.805,228.961 90,231.5C 90.0039,240.856 90.3372,250.19 91,259.5C 89.669,261.996 87.8356,263.996 85.5,265.5C 82.5722,264.409 80.4055,262.409 79,259.5C 73.5666,232.348 72.2333,205.014 75,177.5C 78.7182,157.041 90.2182,143.041 109.5,135.5C 109.435,135.938 109.601,136.272 110,136.5C 112.66,135.166 115.494,134.332 118.5,134C 125.864,133.235 133.197,133.402 140.5,134.5C 146.432,130.037 152.766,126.371 159.5,123.5 Z"/></g>
<g><path style="opacity:0.701" fill="#ffe566" d="M 26.5,124.5 C 30.6262,126.29 30.4595,127.957 26,129.5C 24.7202,129.387 23.8869,128.72 23.5,127.5C 24.3398,126.265 25.3398,125.265 26.5,124.5 Z"/></g>
<g><path style="opacity:0.903" fill="#ccb3ff" d="M 43.5,140.5 C 41.9382,140.733 40.6049,141.4 39.5,142.5C 38.037,139.314 37.537,135.98 38,132.5C 41.586,130.291 45.086,127.957 48.5,125.5C 53.6854,132.668 52.0188,137.668 43.5,140.5 Z"/></g>
<g><path style="opacity:0.93" fill="#fc6195" d="M 56.5,126.5 C 57.8152,131.095 58.8152,135.761 59.5,140.5C 57.9991,139.248 56.3325,138.248 54.5,137.5C 54.1489,134.097 53.4822,130.763 52.5,127.5C 53.8333,127.167 55.1667,126.833 56.5,126.5 Z"/></g>
<g><path style="opacity:0.76" fill="#ffe567" d="M 31.5,126.5 C 34.9173,128.481 35.2506,130.815 32.5,133.5C 30.2395,131.516 29.9061,129.183 31.5,126.5 Z"/></g>
<g><path style="opacity:0.912" fill="#fc5f96" d="M 70.5,127.5 C 72.3325,128.248 73.9991,129.248 75.5,130.5C 77.6549,138.185 74.6549,141.351 66.5,140C 61.9439,133.946 63.2772,129.779 70.5,127.5 Z"/></g>
<g><path style="opacity:0.936" fill="#ff83af" d="M 54.5,137.5 C 56.3325,138.248 57.9991,139.248 59.5,140.5C 61.4994,146.161 59.4994,149.828 53.5,151.5C 47.634,149.743 46.134,146.076 49,140.5C 50.4877,138.84 52.321,137.84 54.5,137.5 Z"/></g>
<g><path style="opacity:0.799" fill="#ab81ff" d="M 43.5,140.5 C 44.3414,145.532 45.3414,150.532 46.5,155.5C 44.9991,154.248 43.3325,153.248 41.5,152.5C 40.8333,149.167 40.1667,145.833 39.5,142.5C 40.6049,141.4 41.9382,140.733 43.5,140.5 Z"/></g>
<g><path style="opacity:0.717" fill="#ffce63" d="M 69.5,149.5 C 65.9319,149.241 64.5985,147.241 65.5,143.5C 69.0681,143.759 70.4015,145.759 69.5,149.5 Z"/></g>
<g><path style="opacity:0.766" fill="#ffcc66" d="M 69.5,149.5 C 70.7495,148.222 72.2495,147.222 74,146.5C 76.218,149.012 75.718,150.678 72.5,151.5C 70.9623,151.547 69.9623,150.88 69.5,149.5 Z"/></g>
<g><path style="opacity:0.991" fill="#cac0c9" d="M 196.5,148.5 C 214.992,149.81 226.825,159.477 232,177.5C 237.977,193.516 238.977,209.85 235,226.5C 232.392,238.656 228.392,250.323 223,261.5C 218.516,266.096 213.016,267.763 206.5,266.5C 212.671,263.472 216.505,258.472 218,251.5C 223.7,236.699 226.867,221.365 227.5,205.5C 227.583,189.403 223.083,174.737 214,161.5C 210.23,156.744 205.73,153.744 200.5,152.5C 206.777,169.367 206.944,186.367 201,203.5C 192.937,222.907 178.437,232.74 157.5,233C 154.124,231.93 150.79,230.764 147.5,229.5C 140.642,233.593 133.309,236.593 125.5,238.5C 124.151,238.154 122.817,237.821 121.5,237.5C 121.279,234.933 120.612,232.599 119.5,230.5C 128.852,228.32 137.685,224.654 146,219.5C 150.048,222.349 154.548,223.683 159.5,223.5C 177.117,222.41 188.95,213.41 195,196.5C 199.829,180.585 200.329,164.585 196.5,148.5 Z"/></g>
<g><path style="opacity:0.721" fill="#ffcc66" d="M 67.5,152.5 C 66.2505,153.778 64.7505,154.778 63,155.5C 60.782,152.988 61.282,151.322 64.5,150.5C 66.0377,150.453 67.0377,151.12 67.5,152.5 Z"/></g>
<g><path style="opacity:0.901" fill="#cbb2ff" d="M 41.5,152.5 C 43.3325,153.248 44.9991,154.248 46.5,155.5C 47.9727,163.691 44.6394,166.691 36.5,164.5C 32.7679,158.175 34.4346,154.175 41.5,152.5 Z"/></g>
<g><path style="opacity:0.72" fill="#ffcc66" d="M 67.5,152.5 C 71.0681,152.759 72.4015,154.759 71.5,158.5C 67.9319,158.241 66.5985,156.241 67.5,152.5 Z"/></g>
<g><path style="opacity:0.989" fill="#d7d0d6" d="M 206.5,266.5 C 197.956,264.81 193.623,259.477 193.5,250.5C 182.167,250.5 170.833,250.5 159.5,250.5C 159.45,261.341 154.117,266.674 143.5,266.5C 136.44,267.661 131.607,264.995 129,258.5C 126.787,251.358 124.287,244.358 121.5,237.5C 122.817,237.821 124.151,238.154 125.5,238.5C 133.309,236.593 140.642,233.593 147.5,229.5C 150.79,230.764 154.124,231.93 157.5,233C 178.437,232.74 192.937,222.907 201,203.5C 206.944,186.367 206.777,169.367 200.5,152.5C 205.73,153.744 210.23,156.744 214,161.5C 223.083,174.737 227.583,189.403 227.5,205.5C 226.867,221.365 223.7,236.699 218,251.5C 216.505,258.472 212.671,263.472 206.5,266.5 Z"/></g>
<g><path style="opacity:1" fill="#464246" d="M 116.5,190.5 C 122.997,190.18 125.164,193.18 123,199.5C 115.962,202.813 113.295,200.479 115,192.5C 115.717,191.956 116.217,191.289 116.5,190.5 Z"/></g>
<g><path style="opacity:0.97" fill="#d8d1d7" d="M 97.5,228.5 C 99.4896,239.082 100.323,249.748 100,260.5C 96.5165,266.266 91.6832,267.933 85.5,265.5C 87.8356,263.996 89.669,261.996 91,259.5C 90.3372,250.19 90.0039,240.856 90,231.5C 91.805,228.961 94.305,227.961 97.5,228.5 Z"/></g>
</svg>
