<?xml version="1.0" encoding="UTF-8"?>
<!DOCTYPE svg PUBLIC "-//W3C//DTD SVG 1.1//EN" "http://www.w3.org/Graphics/SVG/1.1/DTD/svg11.dtd">
<svg xmlns="http://www.w3.org/2000/svg" version="1.1" viewBox="0 0 300 300" width="300px" height="300px" style="shape-rendering:geometricPrecision; text-rendering:geometricPrecision; image-rendering:optimizeQuality; fill-rule:evenodd; clip-rule:evenodd" xmlns:xlink="http://www.w3.org/1999/xlink">
<g><path style="opacity:0.966" fill="#52528b" d="M 190.5,43.5 C 182.184,38.5117 173.184,35.5117 163.5,34.5C 158.014,29.4238 151.681,27.9238 144.5,30C 136.338,31.6676 130.338,36.1676 126.5,43.5C 123.201,45.0182 121.034,47.6849 120,51.5C 117.842,59.349 117.009,67.349 117.5,75.5C 117.5,76.8333 117.5,78.1667 117.5,79.5C 117.724,83.1788 118.058,86.8455 118.5,90.5C 112.127,82.3184 103.794,79.1517 93.5,81C 91.6769,81.9973 90.0103,83.1639 88.5,84.5C 87.8803,74.9412 88.8803,65.6079 91.5,56.5C 98.7432,35.1166 113.743,22.9499 136.5,20C 159.846,16.152 177.846,23.9854 190.5,43.5 Z"/></g>
<g><path style="opacity:1" fill="#6666a2" d="M 117.5,30.5 C 119.989,30.2978 122.323,30.7978 124.5,32C 118.768,37.0733 114.601,43.24 112,50.5C 109.998,57.1834 107.998,63.85 106,70.5C 103.329,75.8546 99.996,76.5212 96,72.5C 93.693,65.2354 94.3597,58.2354 98,51.5C 102.33,42.342 108.83,35.342 117.5,30.5 Z"/></g>
<g><path style="opacity:0.974" fill="#d7d0d6" d="M 163.5,34.5 C 173.184,35.5117 182.184,38.5117 190.5,43.5C 198.619,48.949 204.952,55.949 209.5,64.5C 198.075,61.2488 186.408,59.5821 174.5,59.5C 167.021,49.7658 157.687,42.4325 146.5,37.5C 151.844,35.3671 157.511,34.3671 163.5,34.5 Z"/></g>
<g><path style="opacity:1" fill="#cac0c9" d="M 146.5,37.5 C 157.687,42.4325 167.021,49.7658 174.5,59.5C 169.151,60.2069 163.818,60.7069 158.5,61C 156.129,58.294 153.463,55.9606 150.5,54C 144.529,50.5296 138.529,47.3629 132.5,44.5C 136.581,41.1263 141.247,38.793 146.5,37.5 Z"/></g>
<g><path style="opacity:0.995" fill="#e5e1e5" d="M 126.5,43.5 C 128.5,43.8333 130.5,44.1667 132.5,44.5C 138.529,47.3629 144.529,50.5296 150.5,54C 153.463,55.9606 156.129,58.294 158.5,61C 163.818,60.7069 169.151,60.2069 174.5,59.5C 186.408,59.5821 198.075,61.2488 209.5,64.5C 237.462,74.6358 254.629,94.3025 261,123.5C 266.218,167.79 264.218,211.79 255,255.5C 252.869,259.47 249.702,262.137 245.5,263.5C 240.26,259.732 237.26,254.566 236.5,248C 237.97,236.156 239.137,224.323 240,212.5C 237.779,206.91 233.612,204.577 227.5,205.5C 227.719,204.325 227.386,203.325 226.5,202.5C 216.291,206.868 205.624,208.868 194.5,208.5C 179.619,206.256 165.786,200.922 153,192.5C 146.894,195.818 140.394,197.818 133.5,198.5C 109.359,189.182 94.1924,171.849 88,146.5C 85.7735,138.095 85.2735,129.762 86.5,121.5C 89.6187,125.957 93.6187,129.291 98.5,131.5C 100.493,133.163 102.826,134.33 105.5,135C 110.537,135.663 115.537,135.496 120.5,134.5C 143.989,132.48 153.156,119.814 148,96.5C 142.518,82.4937 132.351,75.4937 117.5,75.5C 117.009,67.349 117.842,59.349 120,51.5C 121.034,47.6849 123.201,45.0182 126.5,43.5 Z"/></g>
<g><path style="opacity:0.996" fill="#d7d0d6" d="M 91.5,56.5 C 88.8803,65.6079 87.8803,74.9412 88.5,84.5C 87.8333,84.5 87.5,84.8333 87.5,85.5C 81.2142,91.8728 79.0475,99.5395 81,108.5C 82.1669,113.182 84.0002,117.516 86.5,121.5C 85.2735,129.762 85.7735,138.095 88,146.5C 94.1924,171.849 109.359,189.182 133.5,198.5C 122.871,199.593 113.204,197.093 104.5,191C 90.0487,180.533 80.2154,166.7 75,149.5C 69.3627,127.519 69.1961,105.519 74.5,83.5C 77.4074,72.6685 83.074,63.6685 91.5,56.5 Z"/></g>
<g><path style="opacity:1" fill="#c5c5fd" d="M 117.5,75.5 C 132.351,75.4937 142.518,82.4937 148,96.5C 153.156,119.814 143.989,132.48 120.5,134.5C 133.665,127.495 138.832,116.495 136,101.5C 133.328,91.1157 127.161,83.7823 117.5,79.5C 117.5,78.1667 117.5,76.8333 117.5,75.5 Z"/></g>
<g><path style="opacity:1" fill="#414178" d="M 118.5,90.5 C 126.145,102.418 126.312,114.418 119,126.5C 116.195,129.653 112.695,131.319 108.5,131.5C 107.127,131.657 105.793,131.49 104.5,131C 110.94,128.227 114.774,123.394 116,116.5C 118.035,101.729 112.202,91.5627 98.5,86C 94.6223,85.8124 90.9556,85.6458 87.5,85.5C 87.5,84.8333 87.8333,84.5 88.5,84.5C 90.0103,83.1639 91.6769,81.9973 93.5,81C 103.794,79.1517 112.127,82.3184 118.5,90.5 Z"/></g>
<g><path style="opacity:1" fill="#a2a2f3" d="M 117.5,79.5 C 127.161,83.7823 133.328,91.1157 136,101.5C 138.832,116.495 133.665,127.495 120.5,134.5C 115.537,135.496 110.537,135.663 105.5,135C 102.826,134.33 100.493,133.163 98.5,131.5C 101.985,132.59 105.319,132.59 108.5,131.5C 112.695,131.319 116.195,129.653 119,126.5C 126.312,114.418 126.145,102.418 118.5,90.5C 118.058,86.8455 117.724,83.1788 117.5,79.5 Z"/></g>
<g><path style="opacity:0.995" fill="#cac0c9" d="M 74.5,83.5 C 69.1961,105.519 69.3627,127.519 75,149.5C 80.2154,166.7 90.0487,180.533 104.5,191C 113.204,197.093 122.871,199.593 133.5,198.5C 140.394,197.818 146.894,195.818 153,192.5C 165.786,200.922 179.619,206.256 194.5,208.5C 192.077,212.081 190.41,216.081 189.5,220.5C 174.99,220.08 161.99,215.413 150.5,206.5C 129.829,216.242 110.495,214.076 92.5,200C 77.1247,187.29 67.6247,171.123 64,151.5C 62.5161,137.531 62.1828,123.531 63,109.5C 63.8244,102.709 65.6577,96.2092 68.5,90C 68.1667,89.5 67.8333,89 67.5,88.5C 57.6283,93.2043 49.7949,100.204 44,109.5C 29.2782,135.392 24.2782,163.058 29,192.5C 32.452,215.306 39.452,236.973 50,257.5C 53.154,260.512 56.654,262.845 60.5,264.5C 47.4677,267.344 37.9677,263.01 32,251.5C 23.1989,230.963 17.1989,209.63 14,187.5C 10.3396,156.143 17.3396,127.477 35,101.5C 45.3459,89.4119 58.5125,83.4119 74.5,83.5 Z"/></g>
<g><path style="opacity:1" fill="#53538c" d="M 87.5,85.5 C 90.9556,85.6458 94.6223,85.8124 98.5,86C 112.202,91.5627 118.035,101.729 116,116.5C 114.774,123.394 110.94,128.227 104.5,131C 105.793,131.49 107.127,131.657 108.5,131.5C 105.319,132.59 101.985,132.59 98.5,131.5C 93.6187,129.291 89.6187,125.957 86.5,121.5C 84.0002,117.516 82.1669,113.182 81,108.5C 79.0475,99.5395 81.2142,91.8728 87.5,85.5 Z"/></g>
<g><path style="opacity:0.992" fill="#d7d0d6" d="M 189.5,220.5 C 185.636,232.257 181.469,243.924 177,255.5C 174.708,259.788 171.208,262.622 166.5,264C 145.404,269.045 134.071,260.878 132.5,239.5C 114.833,239.5 97.1667,239.5 79.5,239.5C 80.1068,253.345 73.7734,261.678 60.5,264.5C 56.654,262.845 53.154,260.512 50,257.5C 39.452,236.973 32.452,215.306 29,192.5C 24.2782,163.058 29.2782,135.392 44,109.5C 49.7949,100.204 57.6283,93.2043 67.5,88.5C 67.8333,89 68.1667,89.5 68.5,90C 65.6577,96.2092 63.8244,102.709 63,109.5C 62.1828,123.531 62.5161,137.531 64,151.5C 67.6247,171.123 77.1247,187.29 92.5,200C 110.495,214.076 129.829,216.242 150.5,206.5C 161.99,215.413 174.99,220.08 189.5,220.5 Z"/></g>
<g><path style="opacity:1" fill="#6666a2" d="M 88.5,93.5 C 95.9365,95.7613 101.437,100.428 105,107.5C 105.937,112.403 105.27,117.07 103,121.5C 99.9574,123.908 96.7907,124.074 93.5,122C 85.0622,113.673 83.3955,104.173 88.5,93.5 Z"/></g>
<g><path style="opacity:1" fill="#484448" d="M 192.5,146.5 C 198.732,146.566 201.732,149.733 201.5,156C 201.954,161.271 199.62,164.438 194.5,165.5C 189.38,164.438 187.046,161.271 187.5,156C 187.228,151.706 188.895,148.54 192.5,146.5 Z"/></g>
<g><path style="opacity:0.985" fill="#d8d1d7" d="M 227.5,205.5 C 233.612,204.577 237.779,206.91 240,212.5C 239.137,224.323 237.97,236.156 236.5,248C 237.26,254.566 240.26,259.732 245.5,263.5C 235.187,266.595 227.687,263.262 223,253.5C 223.021,237.337 224.521,221.337 227.5,205.5 Z"/></g>
</svg>
