<?xml version="1.0" encoding="UTF-8"?>
<!DOCTYPE svg PUBLIC "-//W3C//DTD SVG 1.1//EN" "http://www.w3.org/Graphics/SVG/1.1/DTD/svg11.dtd">
<svg xmlns="http://www.w3.org/2000/svg" version="1.1" viewBox="0 0 235 300" width="235px" height="300px" style="shape-rendering:geometricPrecision; text-rendering:geometricPrecision; image-rendering:optimizeQuality; fill-rule:evenodd; clip-rule:evenodd" xmlns:xlink="http://www.w3.org/1999/xlink">
<g><path style="opacity:0.965" fill="#d7d0d6" d="M 182.5,67.5 C 182.631,68.3764 182.298,69.0431 181.5,69.5C 171.465,65.9316 161.132,64.265 150.5,64.5C 143.889,57.0589 136.222,50.8922 127.5,46C 125.19,45.5034 122.857,45.3367 120.5,45.5C 139.692,38.1276 157.025,41.2943 172.5,55C 176.047,59.0413 179.38,63.208 182.5,67.5 Z"/></g>
<g><path style="opacity:0.993" fill="#cac0c9" d="M 120.5,45.5 C 122.857,45.3367 125.19,45.5034 127.5,46C 136.222,50.8922 143.889,57.0589 150.5,64.5C 146.24,65.2538 141.907,66.2538 137.5,67.5C 129.142,60.5056 120.142,54.8389 110.5,50.5C 113.55,48.3084 116.883,46.6417 120.5,45.5 Z"/></g>
<g><path style="opacity:0.994" fill="#d8d1d7" d="M 107.5,50.5 C 83.1983,58.662 69.6983,75.662 67,101.5C 66.3333,111.5 66.3333,121.5 67,131.5C 68.2901,154.917 78.1234,173.751 96.5,188C 101.615,191.193 106.948,193.693 112.5,195.5C 96.1821,195.926 82.6821,189.926 72,177.5C 61.5102,164.378 55.5102,149.378 54,132.5C 52.8377,117.331 53.671,102.331 56.5,87.5C 64.5747,62.6475 81.5747,50.3142 107.5,50.5 Z"/></g>
<g><path style="opacity:0.996" fill="#e5e1e5" d="M 107.5,50.5 C 108.5,50.5 109.5,50.5 110.5,50.5C 120.142,54.8389 129.142,60.5056 137.5,67.5C 141.907,66.2538 146.24,65.2538 150.5,64.5C 161.132,64.265 171.465,65.9316 181.5,69.5C 182.298,69.0431 182.631,68.3764 182.5,67.5C 189.369,71.6125 196.369,75.7792 203.5,80C 214.736,88.5629 222.903,99.3963 228,112.5C 230.63,121.183 232.797,129.849 234.5,138.5C 234.5,156.5 234.5,174.5 234.5,192.5C 232.245,210.055 229.745,227.721 227,245.5C 225.393,250.601 222.226,254.268 217.5,256.5C 213.415,253.902 210.582,250.235 209,245.5C 209.802,233.148 210.802,220.815 212,208.5C 209.647,203.74 205.814,201.74 200.5,202.5C 200.5,201.5 200.5,200.5 200.5,199.5C 189.904,203.618 178.904,205.284 167.5,204.5C 154.022,202.449 141.688,197.449 130.5,189.5C 124.944,192.907 118.944,194.907 112.5,195.5C 106.948,193.693 101.615,191.193 96.5,188C 78.1234,173.751 68.2901,154.917 67,131.5C 66.3333,121.5 66.3333,111.5 67,101.5C 69.6983,75.662 83.1983,58.662 107.5,50.5 Z"/></g>
<g><path style="opacity:0.995" fill="#cac0c9" d="M 56.5,87.5 C 53.671,102.331 52.8377,117.331 54,132.5C 55.5102,149.378 61.5102,164.378 72,177.5C 82.6821,189.926 96.1821,195.926 112.5,195.5C 118.944,194.907 124.944,192.907 130.5,189.5C 141.688,197.449 154.022,202.449 167.5,204.5C 166.903,208.619 165.903,212.619 164.5,216.5C 151.092,215.642 138.925,211.309 128,203.5C 110.001,212.448 92.834,210.948 76.5,199C 56.3932,183.957 45.8932,163.79 45,138.5C 43.2565,122.704 45.4231,107.538 51.5,93C 51.1667,92.5 50.8333,92 50.5,91.5C 35.4801,99.6994 25.3134,112.033 20,128.5C 12.9507,146.215 10.6174,164.548 13,183.5C 16.1197,208.167 23.6197,231.334 35.5,253C 38.0993,254.795 40.7659,256.295 43.5,257.5C 36.0906,258.379 29.0906,257.212 22.5,254C 17.9169,246.942 14.0835,239.442 11,231.5C 6.60904,217.185 2.77571,202.851 -0.5,188.5C -0.5,176.167 -0.5,163.833 -0.5,151.5C 2.86001,135.434 9.02667,120.434 18,106.5C 27.6927,93.9039 40.526,87.5705 56.5,87.5 Z"/></g>
<g><path style="opacity:0.995" fill="#d7d0d6" d="M 164.5,216.5 C 161.184,228.134 157.018,239.467 152,250.5C 149.635,253.869 146.468,256.036 142.5,257C 123.165,261.518 112.498,254.018 110.5,234.5C 94.1803,233.501 77.8469,233.167 61.5,233.5C 61.2864,241.879 58.2864,249.046 52.5,255C 49.6473,256.43 46.6473,257.263 43.5,257.5C 40.7659,256.295 38.0993,254.795 35.5,253C 23.6197,231.334 16.1197,208.167 13,183.5C 10.6174,164.548 12.9507,146.215 20,128.5C 25.3134,112.033 35.4801,99.6994 50.5,91.5C 50.8333,92 51.1667,92.5 51.5,93C 45.4231,107.538 43.2565,122.704 45,138.5C 45.8932,163.79 56.3932,183.957 76.5,199C 92.834,210.948 110.001,212.448 128,203.5C 138.925,211.309 151.092,215.642 164.5,216.5 Z"/></g>
<g><path style="opacity:1" fill="#484448" d="M 165.5,147.5 C 174.981,147.153 178.147,151.486 175,160.5C 170.478,166.06 166.478,165.727 163,159.5C 161.888,155.019 162.721,151.019 165.5,147.5 Z"/></g>
<g><path style="opacity:0.979" fill="#d8d1d7" d="M 200.5,202.5 C 205.814,201.74 209.647,203.74 212,208.5C 210.802,220.815 209.802,233.148 209,245.5C 210.582,250.235 213.415,253.902 217.5,256.5C 200.049,258.875 192.882,251.209 196,233.5C 197.106,222.966 198.606,212.632 200.5,202.5 Z"/></g>
</svg>
