<?xml version="1.0" encoding="UTF-8"?>
<!DOCTYPE svg PUBLIC "-//W3C//DTD SVG 1.1//EN" "http://www.w3.org/Graphics/SVG/1.1/DTD/svg11.dtd">
<svg xmlns="http://www.w3.org/2000/svg" version="1.1" viewBox="0 0 278 300" width="278px" height="300px" style="shape-rendering:geometricPrecision; text-rendering:geometricPrecision; image-rendering:optimizeQuality; fill-rule:evenodd; clip-rule:evenodd" xmlns:xlink="http://www.w3.org/1999/xlink">
<g><path style="opacity:0.938" fill="#fecc54" d="M 238.5,37.5 C 235.169,42.1812 236.169,45.5146 241.5,47.5C 240.619,53.9319 237.286,58.5986 231.5,61.5C 230.822,68.3873 227.656,70.054 222,66.5C 220.631,61.5626 221.797,57.396 225.5,54C 232.166,51.3161 233.166,47.3161 228.5,42C 222.041,40.949 218.708,43.7823 218.5,50.5C 215.958,53.0353 213.458,53.0353 211,50.5C 209.989,39.5037 214.989,33.1703 226,31.5C 230.793,32.3142 234.96,34.3142 238.5,37.5 Z"/></g>
<g><path style="opacity:0.968" fill="#0970cb" d="M 269.5,47.5 C 269.03,51.201 267.697,54.5344 265.5,57.5C 264.375,59.1288 263.041,60.6288 261.5,62C 257.858,63.2696 254.192,64.4362 250.5,65.5C 249.097,69.2545 246.43,70.4211 242.5,69C 239.696,63.385 241.03,58.7183 246.5,55C 249.833,54.3333 253.167,53.6667 256.5,53C 259.981,49.6031 260.314,45.9364 257.5,42C 251.367,38.9675 247.034,40.6342 244.5,47C 243.552,47.4828 242.552,47.6495 241.5,47.5C 236.169,45.5146 235.169,42.1812 238.5,37.5C 247.98,27.1994 257.48,27.1994 267,37.5C 269.006,40.5358 269.84,43.8691 269.5,47.5 Z"/></g>
<g><path style="opacity:0.957" fill="#d8d1d7" d="M 185.5,68.5 C 178.811,67.195 172.144,65.695 165.5,64C 159.805,63.3742 154.138,63.5409 148.5,64.5C 149.263,63.7321 150.263,63.2321 151.5,63C 143.849,55.1682 135.516,48.3349 126.5,42.5C 152.541,36.6871 172.208,45.3537 185.5,68.5 Z"/></g>
<g><path style="opacity:0.999" fill="#cac0c9" d="M 126.5,42.5 C 135.516,48.3349 143.849,55.1682 151.5,63C 150.263,63.2321 149.263,63.7321 148.5,64.5C 144.829,65.3373 141.163,65.8373 137.5,66C 129.687,58.9947 121.021,53.4947 111.5,49.5C 116.104,46.3654 121.104,44.0321 126.5,42.5 Z"/></g>
<g><path style="opacity:0.994" fill="#d8d1d7" d="M 108.5,49.5 C 84.6053,57.5774 71.1053,74.2441 68,99.5C 64.9872,118.912 66.6539,137.912 73,156.5C 80.5,174.667 93.3333,187.5 111.5,195C 113.473,195.495 115.473,195.662 117.5,195.5C 104.144,197.993 92.1443,194.826 81.5,186C 65.6386,172.111 56.8053,154.611 55,133.5C 52.5702,118.307 53.4035,103.307 57.5,88.5C 57.1373,87.8165 56.8039,87.1499 56.5,86.5C 63.0652,68.4345 75.3985,56.2679 93.5,50C 98.5078,48.6548 103.508,48.4881 108.5,49.5 Z"/></g>
<g><path style="opacity:0.995" fill="#e5e1e5" d="M 108.5,49.5 C 109.5,49.5 110.5,49.5 111.5,49.5C 121.021,53.4947 129.687,58.9947 137.5,66C 141.163,65.8373 144.829,65.3373 148.5,64.5C 154.138,63.5409 159.805,63.3742 165.5,64C 172.144,65.695 178.811,67.195 185.5,68.5C 218.139,82.0298 235.306,106.696 237,142.5C 239.071,179.722 235.737,216.389 227,252.5C 224.914,255.094 222.414,257.094 219.5,258.5C 216.535,255.676 214.035,252.343 212,248.5C 212.227,235.134 212.893,221.8 214,208.5C 211.425,204.093 207.592,202.093 202.5,202.5C 202.649,201.448 202.483,200.448 202,199.5C 191.661,204.029 180.828,206.029 169.5,205.5C 155.964,202.873 143.297,197.873 131.5,190.5C 127.022,192.741 122.355,194.408 117.5,195.5C 115.473,195.662 113.473,195.495 111.5,195C 93.3333,187.5 80.5,174.667 73,156.5C 66.6539,137.912 64.9872,118.912 68,99.5C 71.1053,74.2441 84.6053,57.5774 108.5,49.5 Z"/></g>
<g><path style="opacity:0.995" fill="#58cca4" d="M 269.5,47.5 C 272.167,48.1667 274.833,48.8333 277.5,49.5C 277.5,58.5 277.5,67.5 277.5,76.5C 273.268,78.4393 268.934,78.7726 264.5,77.5C 258.035,83.3467 254.868,82.0133 255,73.5C 258.491,68.7401 262.991,67.4067 268.5,69.5C 277.579,65.4467 277.746,61.1134 269,56.5C 267.989,57.3366 266.822,57.67 265.5,57.5C 267.697,54.5344 269.03,51.201 269.5,47.5 Z"/></g>
<g><path style="opacity:0.982" fill="#ffc74c" d="M 224.5,71.5 C 227.99,71.1506 230.323,72.6506 231.5,76C 228.834,81.2062 225.667,81.7062 222,77.5C 221.458,74.9175 222.292,72.9175 224.5,71.5 Z"/></g>
<g><path style="opacity:0.917" fill="#036eca" d="M 237.5,72.5 C 242.083,71.343 244.75,73.0096 245.5,77.5C 243.536,82.4017 240.369,83.4017 236,80.5C 235.109,77.5024 235.609,74.8357 237.5,72.5 Z"/></g>
<g><path style="opacity:0.933" fill="#61d0a2" d="M 249.5,81.5 C 255.992,81.6582 257.658,84.4916 254.5,90C 246.753,90.6692 245.086,87.8359 249.5,81.5 Z"/></g>
<g><path style="opacity:0.995" fill="#cac0c9" d="M 56.5,86.5 C 56.8039,87.1499 57.1373,87.8165 57.5,88.5C 53.4035,103.307 52.5702,118.307 55,133.5C 56.8053,154.611 65.6386,172.111 81.5,186C 92.1443,194.826 104.144,197.993 117.5,195.5C 122.355,194.408 127.022,192.741 131.5,190.5C 143.297,197.873 155.964,202.873 169.5,205.5C 168.5,209.501 167.5,213.501 166.5,217.5C 160.291,217.488 154.291,216.321 148.5,214C 141.742,211.203 135.242,208.037 129,204.5C 110.465,212.539 92.9648,210.706 76.5,199C 60.012,186.502 50.1787,170.002 47,149.5C 44.7971,133.777 45.1304,118.11 48,102.5C 49.09,99.3081 50.2566,96.1414 51.5,93C 51.1667,92.5 50.8333,92 50.5,91.5C 39.5281,96.6386 31.3614,104.639 26,115.5C 13.53,139.121 9.52998,164.121 14,190.5C 17.4721,211.435 23.8055,231.435 33,250.5C 35.8552,254.211 39.3552,256.877 43.5,258.5C 38.4889,258.666 33.4889,258.499 28.5,258C 25.421,256.752 22.7543,254.919 20.5,252.5C 10.2569,232.106 3.25689,210.772 -0.5,188.5C -0.5,176.167 -0.5,163.833 -0.5,151.5C 3.11813,134.151 9.95146,118.151 20,103.5C 29.8152,92.943 41.9818,87.2764 56.5,86.5 Z"/></g>
<g><path style="opacity:0.994" fill="#d7d0d6" d="M 166.5,217.5 C 162.577,228.1 158.744,238.767 155,249.5C 152.778,253.388 149.612,256.221 145.5,258C 125.541,263.202 114.207,255.702 111.5,235.5C 95.1667,234.167 78.8333,234.167 62.5,235.5C 61.6982,243.603 58.3649,250.436 52.5,256C 49.7935,257.908 46.7935,258.741 43.5,258.5C 39.3552,256.877 35.8552,254.211 33,250.5C 23.8055,231.435 17.4721,211.435 14,190.5C 9.52998,164.121 13.53,139.121 26,115.5C 31.3614,104.639 39.5281,96.6386 50.5,91.5C 50.8333,92 51.1667,92.5 51.5,93C 50.2566,96.1414 49.09,99.3081 48,102.5C 45.1304,118.11 44.7971,133.777 47,149.5C 50.1787,170.002 60.012,186.502 76.5,199C 92.9648,210.706 110.465,212.539 129,204.5C 135.242,208.037 141.742,211.203 148.5,214C 154.291,216.321 160.291,217.488 166.5,217.5 Z"/></g>
<g><path style="opacity:1" fill="#464246" d="M 167.5,147.5 C 176.827,147.019 179.994,151.352 177,160.5C 172.478,166.06 168.478,165.727 165,159.5C 163.773,154.938 164.607,150.938 167.5,147.5 Z"/></g>
<g><path style="opacity:0.983" fill="#d8d1d7" d="M 202.5,202.5 C 207.592,202.093 211.425,204.093 214,208.5C 212.893,221.8 212.227,235.134 212,248.5C 214.035,252.343 216.535,255.676 219.5,258.5C 211.813,260.004 205.313,258.004 200,252.5C 199.138,250.913 198.471,249.246 198,247.5C 198.455,232.374 199.955,217.374 202.5,202.5 Z"/></g>
</svg>
