<?xml version="1.0" encoding="UTF-8"?>
<!DOCTYPE svg PUBLIC "-//W3C//DTD SVG 1.1//EN" "http://www.w3.org/Graphics/SVG/1.1/DTD/svg11.dtd">
<svg xmlns="http://www.w3.org/2000/svg" version="1.1" viewBox="0 0 302 314" width="302px" height="314px" style="shape-rendering:geometricPrecision; text-rendering:geometricPrecision; image-rendering:optimizeQuality; fill-rule:evenodd; clip-rule:evenodd" xmlns:xlink="http://www.w3.org/1999/xlink">
<g><path style="opacity:0.978" fill="#75d1d1" d="M 65.5,51.5 C 87.8333,51.5 110.167,51.5 132.5,51.5C 132.5,67.1667 132.5,82.8333 132.5,98.5C 110.167,98.5 87.8333,98.5 65.5,98.5C 65.5,82.8333 65.5,67.1667 65.5,51.5 Z"/></g>
<g><path style="opacity:0.949" fill="#6cbdbb" d="M 42.5,55.5 C 45.8846,57.3709 48.8846,59.8709 51.5,63C 41.3997,73.2658 31.0664,83.4325 20.5,93.5C 13.5092,88.1754 7.17589,82.1754 1.5,75.5C 3.83333,72.5 6.5,69.8333 9.5,67.5C 13.1667,70.8333 16.8333,74.1667 20.5,77.5C 28.1877,70.479 35.521,63.1457 42.5,55.5 Z"/></g>
<g><path style="opacity:1" fill="#f2f3f9" d="M 77.5,60.5 C 91.8333,60.5 106.167,60.5 120.5,60.5C 120.5,61.5 120.5,62.5 120.5,63.5C 106.167,63.5 91.8333,63.5 77.5,63.5C 77.5,62.5 77.5,61.5 77.5,60.5 Z"/></g>
<g><path style="opacity:1" fill="#f6f4fa" d="M 77.5,73.5 C 91.8333,73.5 106.167,73.5 120.5,73.5C 120.5,74.5 120.5,75.5 120.5,76.5C 106.167,76.5 91.8333,76.5 77.5,76.5C 77.5,75.5 77.5,74.5 77.5,73.5 Z"/></g>
<g><path style="opacity:1" fill="#f2f3f9" d="M 77.5,86.5 C 91.8333,86.5 106.167,86.5 120.5,86.5C 120.5,87.5 120.5,88.5 120.5,89.5C 106.167,89.5 91.8333,89.5 77.5,89.5C 77.5,88.5 77.5,87.5 77.5,86.5 Z"/></g>
<g><path style="opacity:0.968" fill="#d8d0d6" d="M 168.5,103.5 C 161.195,107.288 154.862,112.455 149.5,119C 150.737,119.232 151.737,119.732 152.5,120.5C 142.86,118.74 133.527,119.74 124.5,123.5C 127.177,119.471 129.844,115.471 132.5,111.5C 143.023,102.75 155.023,100.083 168.5,103.5 Z"/></g>
<g><path style="opacity:0.997" fill="#cac0c9" d="M 168.5,103.5 C 172.501,104.496 175.834,106.496 178.5,109.5C 171.631,112.276 165.298,116.109 159.5,121C 157.203,121.018 154.869,120.851 152.5,120.5C 151.737,119.732 150.737,119.232 149.5,119C 154.862,112.455 161.195,107.288 168.5,103.5 Z"/></g>
<g><path style="opacity:0.989" fill="#d8d1d7" d="M 181.5,108.5 C 200.682,109.017 213.348,118.351 219.5,136.5C 222.211,152.503 222.044,168.503 219,184.5C 213.867,201.298 203.034,212.465 186.5,218C 181.98,218.814 177.646,218.647 173.5,217.5C 184.543,216.558 193.376,211.558 200,202.5C 207.383,192.019 211.383,180.352 212,167.5C 215.189,147.387 209.689,130.22 195.5,116C 190.787,113.185 186.12,110.685 181.5,108.5 Z"/></g>
<g><path style="opacity:0.997" fill="#e6e2e6" d="M 181.5,108.5 C 186.12,110.685 190.787,113.185 195.5,116C 209.689,130.22 215.189,147.387 212,167.5C 211.383,180.352 207.383,192.019 200,202.5C 193.376,211.558 184.543,216.558 173.5,217.5C 170.063,216.866 166.896,215.533 164,213.5C 154.824,219.385 144.991,223.385 134.5,225.5C 127.071,225.512 119.904,224.179 113,221.5C 111.97,221.836 111.47,222.503 111.5,223.5C 108.03,222.875 105.196,223.875 103,226.5C 103.855,236.795 104.189,247.128 104,257.5C 102.334,259.996 100.5,262.329 98.5,264.5C 94.6017,262.724 92.1017,259.724 91,255.5C 85.9726,229.045 84.3059,202.378 86,175.5C 86.8482,169.094 88.0148,162.76 89.5,156.5C 91.588,154.664 92.9213,152.331 93.5,149.5C 94.0431,149.44 94.3764,149.107 94.5,148.5C 88.8722,147.505 83.2055,147.171 77.5,147.5C 77.5,146.5 77.5,145.5 77.5,144.5C 84.1998,144.83 90.8665,144.497 97.5,143.5C 99.9836,140.516 102.65,137.682 105.5,135C 96.1726,134.5 86.8393,134.334 77.5,134.5C 77.5,133.5 77.5,132.5 77.5,131.5C 88.505,131.667 99.505,131.5 110.5,131C 114.744,127.712 119.41,125.212 124.5,123.5C 133.527,119.74 142.86,118.74 152.5,120.5C 154.869,120.851 157.203,121.018 159.5,121C 165.298,116.109 171.631,112.276 178.5,109.5C 179.609,109.443 180.609,109.11 181.5,108.5 Z"/></g>
<g><path style="opacity:0.997" fill="#f17d8a" d="M 132.5,111.5 C 129.844,115.471 127.177,119.471 124.5,123.5C 119.41,125.212 114.744,127.712 110.5,131C 99.505,131.5 88.505,131.667 77.5,131.5C 77.5,132.5 77.5,133.5 77.5,134.5C 86.8393,134.334 96.1726,134.5 105.5,135C 102.65,137.682 99.9836,140.516 97.5,143.5C 90.8665,144.497 84.1998,144.83 77.5,144.5C 77.5,145.5 77.5,146.5 77.5,147.5C 82.8333,148.167 88.1667,148.833 93.5,149.5C 92.9213,152.331 91.588,154.664 89.5,156.5C 81.5,156.5 73.5,156.5 65.5,156.5C 65.5,140.833 65.5,125.167 65.5,109.5C 88.1917,108.844 110.525,109.511 132.5,111.5 Z"/></g>
<g><path style="opacity:0.946" fill="#d36e7f" d="M 13.5,112.5 C 18.0878,115.745 22.4212,119.412 26.5,123.5C 30.5,119.833 34.5,116.167 38.5,112.5C 42.0691,114.876 44.5691,117.876 46,121.5C 42.3176,125.015 38.8176,128.682 35.5,132.5C 39.1667,136.5 42.8333,140.5 46.5,144.5C 44.1237,148.069 41.1237,150.569 37.5,152C 33.9848,148.318 30.3181,144.818 26.5,141.5C 22.5,145.167 18.5,148.833 14.5,152.5C 11.5,150.167 8.83333,147.5 6.5,144.5C 10.1667,140.5 13.8333,136.5 17.5,132.5C 13.8333,128.5 10.1667,124.5 6.5,120.5C 8.85581,117.814 11.1891,115.147 13.5,112.5 Z"/></g>
<g><path style="opacity:1" fill="#f6f1f7" d="M 77.5,118.5 C 91.8333,118.5 106.167,118.5 120.5,118.5C 120.5,119.5 120.5,120.5 120.5,121.5C 106.167,121.5 91.8333,121.5 77.5,121.5C 77.5,120.5 77.5,119.5 77.5,118.5 Z"/></g>
<g><path style="opacity:0.992" fill="#cac0c9" d="M 219.5,136.5 C 230.844,136.61 240.177,140.943 247.5,149.5C 260.789,168.761 265.623,190.095 262,213.5C 259.954,226.97 256.287,239.97 251,252.5C 246.921,264.018 239.088,268.018 227.5,264.5C 231.292,264.021 234.459,262.354 237,259.5C 248.878,236.232 253.878,211.565 252,185.5C 249.349,170.034 242.849,156.534 232.5,145C 229.77,142.796 226.77,141.463 223.5,141C 230.223,160.179 230.057,179.345 223,198.5C 213.309,218.42 197.476,228.253 175.5,228C 172.18,227.257 169.013,226.09 166,224.5C 157.657,230.003 148.49,233.003 138.5,233.5C 137.359,230.746 136.025,228.079 134.5,225.5C 144.991,223.385 154.824,219.385 164,213.5C 166.896,215.533 170.063,216.866 173.5,217.5C 177.646,218.647 181.98,218.814 186.5,218C 203.034,212.465 213.867,201.298 219,184.5C 222.044,168.503 222.211,152.503 219.5,136.5 Z"/></g>
<g><path style="opacity:0.988" fill="#d7d0d6" d="M 227.5,264.5 C 224.383,264.358 221.883,263.024 220,260.5C 218.005,256.683 216.505,252.683 215.5,248.5C 203.185,247.501 190.851,247.168 178.5,247.5C 176.564,263.312 167.897,268.812 152.5,264C 149.272,262.437 147.105,259.937 146,256.5C 142.988,248.964 140.488,241.297 138.5,233.5C 148.49,233.003 157.657,230.003 166,224.5C 169.013,226.09 172.18,227.257 175.5,228C 197.476,228.253 213.309,218.42 223,198.5C 230.057,179.345 230.223,160.179 223.5,141C 226.77,141.463 229.77,142.796 232.5,145C 242.849,156.534 249.349,170.034 252,185.5C 253.878,211.565 248.878,236.232 237,259.5C 234.459,262.354 231.292,264.021 227.5,264.5 Z"/></g>
<g><path style="opacity:1" fill="#f299a5" d="M 77.5,147.5 C 83.2055,147.171 88.8722,147.505 94.5,148.5C 94.3764,149.107 94.0431,149.44 93.5,149.5C 88.1667,148.833 82.8333,148.167 77.5,147.5 Z"/></g>
<g><path style="opacity:1" fill="#474347" d="M 132.5,181.5 C 138.795,181.984 140.961,185.317 139,191.5C 133.637,196.185 130.47,194.851 129.5,187.5C 129.628,185.045 130.628,183.045 132.5,181.5 Z"/></g>
<g><path style="opacity:0.976" fill="#d8d1d7" d="M 111.5,223.5 C 113.573,235.081 114.406,246.747 114,258.5C 110.301,264.343 105.134,266.343 98.5,264.5C 100.5,262.329 102.334,259.996 104,257.5C 104.189,247.128 103.855,236.795 103,226.5C 105.196,223.875 108.03,222.875 111.5,223.5 Z"/></g>
</svg>
