<?xml version="1.0" encoding="UTF-8"?>
<!DOCTYPE svg PUBLIC "-//W3C//DTD SVG 1.1//EN" "http://www.w3.org/Graphics/SVG/1.1/DTD/svg11.dtd">
<svg xmlns="http://www.w3.org/2000/svg" version="1.1" viewBox="0 0 286 343" width="286px" height="343px" style="shape-rendering:geometricPrecision; text-rendering:geometricPrecision; image-rendering:optimizeQuality; fill-rule:evenodd; clip-rule:evenodd" xmlns:xlink="http://www.w3.org/1999/xlink">
<g><path style="opacity:0.919" fill="#ff4f62" d="M 123.5,-0.5 C 126.5,-0.5 129.5,-0.5 132.5,-0.5C 137.121,2.58936 138.621,6.92269 137,12.5C 133.666,18.4649 128.832,19.9649 122.5,17C 116.964,10.7519 117.297,4.91854 123.5,-0.5 Z"/></g>
<g><path style="opacity:0.93" fill="#5d73bc" d="M 62.5,0.5 C 65.3646,0.0548358 67.8646,0.721502 70,2.5C 80.4881,21.6642 91.1548,40.6642 102,59.5C 101.678,65.2488 98.8442,66.7488 93.5,64C 82.764,45.2269 71.9307,26.3936 61,7.5C 60.1668,4.829 60.6668,2.49566 62.5,0.5 Z"/></g>
<g><path style="opacity:0.936" fill="#63d38f" d="M 215.5,0.5 C 217.857,0.336688 220.19,0.503354 222.5,1C 224.036,2.59944 224.536,4.43277 224,6.5C 213.094,25.3063 202.427,44.3063 192,63.5C 185.626,67.325 182.626,65.6583 183,58.5C 194.127,39.2372 204.96,19.9039 215.5,0.5 Z"/></g>
<g><path style="opacity:0.855" fill="#ff4d61" d="M 100.5,3.5 C 105.481,3.37941 107.647,5.71274 107,10.5C 104.833,13.3333 102.333,15.8333 99.5,18C 93.2402,18.9069 91.2402,16.4069 93.5,10.5C 95.6207,7.89691 97.954,5.56358 100.5,3.5 Z"/></g>
<g><path style="opacity:0.937" fill="#ffd030" d="M 155.5,18.5 C 168.92,19.4153 173.086,26.0819 168,38.5C 161.667,45.1667 155.333,45.1667 149,38.5C 144.864,29.6112 147.03,22.9446 155.5,18.5 Z"/></g>
<g><path style="opacity:0.944" fill="#5c72bb" d="M 253.5,41.5 C 259.499,41.002 261.666,43.6687 260,49.5C 257.833,51.6667 255.667,53.8333 253.5,56C 247.498,56.9931 245.332,54.4931 247,48.5C 249.372,46.2968 251.539,43.9635 253.5,41.5 Z"/></g>
<g><path style="opacity:0.822" fill="#ffab00" d="M 56.5,48.5 C 62.0886,47.7386 64.5886,50.072 64,55.5C 61.5101,61.0225 57.3434,63.5225 51.5,63C 49.6041,61.1917 49.1041,59.025 50,56.5C 52.0007,53.6693 54.1673,51.0026 56.5,48.5 Z"/></g>
<g><path style="opacity:0.867" fill="#ff5161" d="M 133.5,60.5 C 135.857,60.3367 138.19,60.5034 140.5,61C 142.182,65.0608 141.349,68.5608 138,71.5C 133.719,75.7955 129.885,75.4622 126.5,70.5C 128.08,66.5951 130.414,63.2618 133.5,60.5 Z"/></g>
<g><path style="opacity:0.889" fill="#ffab00" d="M 258.5,72.5 C 267.09,73.1782 268.59,76.8449 263,83.5C 248.859,97.3086 235.025,111.475 221.5,126C 216.439,129.677 213.106,128.343 211.5,122C 227.343,105.657 243.01,89.1572 258.5,72.5 Z"/></g>
<g><path style="opacity:0.89" fill="#ff4e62" d="M 20.5,74.5 C 22.9892,74.2978 25.3225,74.7978 27.5,76C 42.2504,91.4206 57.0837,106.921 72,122.5C 72.9931,128.502 70.4931,130.668 64.5,129C 50.6686,114.169 36.5019,99.6686 22,85.5C 20.3674,83.5471 19.2007,81.3804 18.5,79C 18.5186,77.167 19.1852,75.667 20.5,74.5 Z"/></g>
<g><path style="opacity:0.833" fill="#ff4d63" d="M 106.5,74.5 C 112.758,75.4774 114.091,78.6441 110.5,84C 104.447,84.9443 102.28,82.4443 104,76.5C 104.995,75.9341 105.828,75.2674 106.5,74.5 Z"/></g>
<g><path style="opacity:0.813" fill="#ffae00" d="M 175.5,74.5 C 180.722,74.9446 182.389,77.6113 180.5,82.5C 176.112,85.6531 173.112,84.6531 171.5,79.5C 172.127,77.2127 173.46,75.546 175.5,74.5 Z"/></g>
<g><path style="opacity:0.897" fill="#ff4e61" d="M 210.5,75.5 C 220.492,74.3271 224.992,78.6604 224,88.5C 218.417,97.421 212.417,97.7543 206,89.5C 204.309,83.6102 205.809,78.9436 210.5,75.5 Z"/></g>
<g><path style="opacity:0.789" fill="#ffad00" d="M 113.5,86.5 C 118.952,87.5227 120.619,90.6894 118.5,96C 111.909,98.2438 109.409,96.0771 111,89.5C 112.045,88.6266 112.878,87.6266 113.5,86.5 Z"/></g>
<g><path style="opacity:0.879" fill="#2fc572" d="M 167.5,86.5 C 174.358,87.1549 176.025,90.3216 172.5,96C 164.441,96.3858 162.775,93.2192 167.5,86.5 Z"/></g>
<g><path style="opacity:0.971" fill="#fecf2f" d="M 165.5,156.5 C 160.848,156.002 156.181,155.669 151.5,155.5C 149.766,156.562 148.099,156.562 146.5,155.5C 144.117,153.642 141.45,152.308 138.5,151.5C 132.866,149.062 126.866,148.062 120.5,148.5C 121.329,145.531 121.495,142.531 121,139.5C 117,135.5 113,131.5 109,127.5C 106.442,122.875 107.609,119.709 112.5,118C 117.489,117.251 122.489,116.585 127.5,116C 128.5,115.167 129.5,114.333 130.5,113.5C 132.911,108.421 135.411,103.421 138,98.5C 140.925,95.9406 143.925,95.9406 147,98.5C 149.269,104.319 152.102,109.819 155.5,115C 161.04,116.554 166.706,117.554 172.5,118C 176.629,120.631 177.462,124.131 175,128.5C 171.306,132.194 167.64,135.86 164,139.5C 163.792,145.215 164.292,150.881 165.5,156.5 Z"/></g>
<g><path style="opacity:0.835" fill="#ff5565" d="M 199.5,133.5 C 206.628,133.706 208.294,136.873 204.5,143C 200.3,144.31 197.633,142.81 196.5,138.5C 197.26,136.64 198.26,134.973 199.5,133.5 Z"/></g>
<g><path style="opacity:0.792" fill="#ffab00" d="M 80.5,135.5 C 87.4863,135.331 89.153,138.164 85.5,144C 81.5698,145.421 78.9032,144.254 77.5,140.5C 78.0654,138.491 79.0654,136.824 80.5,135.5 Z"/></g>
<g><path style="opacity:0.9" fill="#2ec471" d="M 28.5,141.5 C 34.8769,141.575 36.7102,144.575 34,150.5C 31.8012,153.552 28.9678,155.552 25.5,156.5C 24.0055,156.291 22.8388,155.624 22,154.5C 21.3333,152.5 21.3333,150.5 22,148.5C 24.4003,146.271 26.567,143.937 28.5,141.5 Z"/></g>
<g><path style="opacity:0.796" fill="#ffaa00" d="M 189.5,144.5 C 193.779,143.454 196.445,144.954 197.5,149C 195.296,153.772 192.13,154.605 188,151.5C 187.185,148.802 187.685,146.468 189.5,144.5 Z"/></g>
<g><path style="opacity:0.864" fill="#5c71bb" d="M 90.5,145.5 C 96.7637,145.088 98.7637,147.755 96.5,153.5C 91.7965,156.726 88.7965,155.559 87.5,150C 88.0077,148.107 89.0077,146.607 90.5,145.5 Z"/></g>
<g><path style="opacity:0.97" fill="#d8d1d6" d="M 120.5,148.5 C 126.866,148.062 132.866,149.062 138.5,151.5C 135.206,151.259 132.206,152.092 129.5,154C 124.993,157.676 120.659,161.51 116.5,165.5C 117.602,166.176 118.602,166.842 119.5,167.5C 109.227,165.745 99.2274,166.745 89.5,170.5C 95.9219,157.757 106.255,150.424 120.5,148.5 Z"/></g>
<g><path style="opacity:0.954" fill="#5c72bb" d="M 55.5,151.5 C 63.0606,150.444 67.7273,153.611 69.5,161C 66.9368,171.078 61.1034,173.578 52,168.5C 48.0071,161.626 49.1738,155.96 55.5,151.5 Z"/></g>
<g><path style="opacity:1" fill="#cac0c9" d="M 138.5,151.5 C 141.45,152.308 144.117,153.642 146.5,155.5C 139.547,158.649 133.214,162.815 127.5,168C 124.808,168.43 122.141,168.263 119.5,167.5C 118.602,166.842 117.602,166.176 116.5,165.5C 120.659,161.51 124.993,157.676 129.5,154C 132.206,152.092 135.206,151.259 138.5,151.5 Z"/></g>
<g><path style="opacity:0.991" fill="#d8d1d7" d="M 151.5,155.5 C 156.181,155.669 160.848,156.002 165.5,156.5C 178.768,161.434 187.101,170.768 190.5,184.5C 192.415,184.216 194.081,184.549 195.5,185.5C 193.801,185.34 192.134,185.506 190.5,186C 197.249,210.758 193.749,233.925 180,255.5C 170.297,267.119 158.13,272.119 143.5,270.5C 153.23,269.217 161.396,264.884 168,257.5C 177.512,245.977 182.512,232.644 183,217.5C 184.73,201.983 182.063,187.316 175,173.5C 169.03,164.946 161.196,158.946 151.5,155.5 Z"/></g>
<g><path style="opacity:0.995" fill="#e5e1e5" d="M 146.5,155.5 C 148.099,156.562 149.766,156.562 151.5,155.5C 161.196,158.946 169.03,164.946 175,173.5C 182.063,187.316 184.73,201.983 183,217.5C 182.512,232.644 177.512,245.977 168,257.5C 161.396,264.884 153.23,269.217 143.5,270.5C 139.239,270.455 135.405,269.122 132,266.5C 122.629,272.567 112.462,276.567 101.5,278.5C 94.3979,278.749 87.3979,278.082 80.5,276.5C 79.5637,275.026 78.2303,274.026 76.5,273.5C 76.44,272.957 76.1067,272.624 75.5,272.5C 74.5713,273.689 74.238,275.022 74.5,276.5C 71.2155,276.269 68.7155,277.603 67,280.5C 67.0917,290.891 67.7584,301.224 69,311.5C 67.5525,315.785 64.7192,318.452 60.5,319.5C 56.6054,317.354 54.4387,314.021 54,309.5C 48.5041,279.339 47.1708,249.006 50,218.5C 53.9031,194.773 67.0698,178.773 89.5,170.5C 99.2274,166.745 109.227,165.745 119.5,167.5C 122.141,168.263 124.808,168.43 127.5,168C 133.214,162.815 139.547,158.649 146.5,155.5 Z"/></g>
<g><path style="opacity:0.945" fill="#ffd02f" d="M 238.5,157.5 C 239.873,157.343 241.207,157.51 242.5,158C 245.553,161.387 248.22,165.053 250.5,169C 268.299,166.923 271.466,172.423 260,185.5C 260.323,190.023 261.156,194.523 262.5,199C 262.914,202.088 261.58,203.922 258.5,204.5C 254.814,202.74 250.981,201.407 247,200.5C 242.948,202.204 239.115,204.371 235.5,207C 233.299,207.825 231.466,207.325 230,205.5C 229.667,200.5 229.333,195.5 229,190.5C 225.667,187.833 222.333,185.167 219,182.5C 218.257,180.559 218.424,178.726 219.5,177C 224.21,175.539 228.71,173.705 233,171.5C 234.597,166.656 236.43,161.989 238.5,157.5 Z"/></g>
<g><path style="opacity:0.993" fill="#cac0c9" d="M 195.5,185.5 C 208.58,186.739 218.413,193.072 225,204.5C 238.42,229.343 241.086,255.343 233,282.5C 230.262,292.38 226.929,302.047 223,311.5C 221.073,316.428 217.573,319.594 212.5,321C 207.98,321.814 203.646,321.647 199.5,320.5C 204.076,320.432 207.576,318.432 210,314.5C 220.314,294.059 225.814,272.392 226.5,249.5C 226.203,232.112 221.37,216.112 212,201.5C 207.706,196.106 202.539,191.773 196.5,188.5C 196.167,188.833 195.833,189.167 195.5,189.5C 201.979,208.737 202.146,228.07 196,247.5C 186.505,270.691 169.338,282.191 144.5,282C 140.632,280.989 136.966,279.489 133.5,277.5C 124.881,283.626 115.547,287.626 105.5,289.5C 103.72,286.081 102.387,282.414 101.5,278.5C 112.462,276.567 122.629,272.567 132,266.5C 135.405,269.122 139.239,270.455 143.5,270.5C 158.13,272.119 170.297,267.119 180,255.5C 193.749,233.925 197.249,210.758 190.5,186C 192.134,185.506 193.801,185.34 195.5,185.5 Z"/></g>
<g><path style="opacity:0.988" fill="#d7d0d6" d="M 199.5,320.5 C 195.862,320.262 193.029,318.596 191,315.5C 188.74,311.46 187.573,307.127 187.5,302.5C 174.167,302.5 160.833,302.5 147.5,302.5C 146.431,317.544 138.431,323.71 123.5,321C 120.302,320.152 117.469,318.652 115,316.5C 110.931,307.793 107.765,298.793 105.5,289.5C 115.547,287.626 124.881,283.626 133.5,277.5C 136.966,279.489 140.632,280.989 144.5,282C 169.338,282.191 186.505,270.691 196,247.5C 202.146,228.07 201.979,208.737 195.5,189.5C 195.833,189.167 196.167,188.833 196.5,188.5C 202.539,191.773 207.706,196.106 212,201.5C 221.37,216.112 226.203,232.112 226.5,249.5C 225.814,272.392 220.314,294.059 210,314.5C 207.576,318.432 204.076,320.432 199.5,320.5 Z"/></g>
<g><path style="opacity:1" fill="#494549" d="M 98.5,232.5 C 105.088,232.657 107.588,235.99 106,242.5C 102.982,247.265 99.6487,247.598 96,243.5C 94.8118,239.259 95.6451,235.592 98.5,232.5 Z"/></g>
<g><path style="opacity:0.953" fill="#63d38e" d="M 31.5,242.5 C 39.3302,241.334 43.6635,244.667 44.5,252.5C 42.7798,261.024 37.7798,263.857 29.5,261C 25.7406,257.257 24.5739,252.757 26,247.5C 27.7038,245.627 29.5372,243.96 31.5,242.5 Z"/></g>
<g><path style="opacity:0.848" fill="#ffac00" d="M 253.5,245.5 C 260.685,245.488 262.519,248.488 259,254.5C 257.167,256.333 255.333,258.167 253.5,260C 246.999,260.812 244.832,257.979 247,251.5C 249.69,249.973 251.857,247.973 253.5,245.5 Z"/></g>
<g><path style="opacity:0.78" fill="#fe5566" d="M 76.5,273.5 C 78.2303,274.026 79.5637,275.026 80.5,276.5C 79.3951,277.6 78.0618,278.267 76.5,278.5C 75.2801,276.716 75.2801,275.05 76.5,273.5 Z"/></g>
<g><path style="opacity:0.973" fill="#d8d1d7" d="M 76.5,273.5 C 75.2801,275.05 75.2801,276.716 76.5,278.5C 78.4343,290.099 79.2676,301.766 79,313.5C 74.6105,321.242 68.4438,323.242 60.5,319.5C 64.7192,318.452 67.5525,315.785 69,311.5C 67.7584,301.224 67.0917,290.891 67,280.5C 68.7155,277.603 71.2155,276.269 74.5,276.5C 74.238,275.022 74.5713,273.689 75.5,272.5C 76.1067,272.624 76.44,272.957 76.5,273.5 Z"/></g>
</svg>
