<?xml version="1.0" encoding="UTF-8"?>
<!DOCTYPE svg PUBLIC "-//W3C//DTD SVG 1.1//EN" "http://www.w3.org/Graphics/SVG/1.1/DTD/svg11.dtd">
<svg xmlns="http://www.w3.org/2000/svg" version="1.1" viewBox="0 0 256 256" width="256px" height="256px" style="shape-rendering:geometricPrecision; text-rendering:geometricPrecision; image-rendering:optimizeQuality; fill-rule:evenodd; clip-rule:evenodd" xmlns:xlink="http://www.w3.org/1999/xlink">
<g><path style="opacity:0.936" fill="#ffc7b5" d="M 199.5,-0.5 C 200.833,-0.5 202.167,-0.5 203.5,-0.5C 204.022,2.56823 204.855,5.56823 206,8.5C 208.69,10.1817 211.523,11.6817 214.5,13C 215.833,14.3333 215.833,15.6667 214.5,17C 206.99,18.3452 203.323,22.8452 203.5,30.5C 202.022,30.762 200.689,30.4287 199.5,29.5C 198.431,26.4606 197.265,23.4606 196,20.5C 193.455,19.4782 190.955,18.3116 188.5,17C 187.167,15.6667 187.167,14.3333 188.5,13C 191.329,11.7533 193.995,10.2533 196.5,8.5C 197.705,5.55042 198.705,2.55042 199.5,-0.5 Z"/></g>
<g><path style="opacity:0.871" fill="#ef8abb" d="M 70.5,14.5 C 74.4589,13.5778 76.7922,15.0778 77.5,19C 75.7147,23.6532 72.8814,24.4865 69,21.5C 68.1668,18.829 68.6668,16.4957 70.5,14.5 Z"/></g>
<g><path style="opacity:0.938" fill="#cab4ef" d="M 41.5,22.5 C 42.8221,22.33 43.9887,22.6634 45,23.5C 46.5433,27.9655 48.3767,32.2988 50.5,36.5C 53.7148,38.2743 57.0482,39.7743 60.5,41C 62.5268,42.3957 62.8602,44.0624 61.5,46C 57.5633,47.6441 53.7299,49.4774 50,51.5C 48.4698,55.0901 47.1365,58.7568 46,62.5C 44.8567,65.9153 43.19,66.2486 41,63.5C 39.7779,59.3904 38.2779,55.3904 36.5,51.5C 32.8422,49.6711 29.1756,47.8378 25.5,46C 24.2528,44.5064 24.2528,43.0064 25.5,41.5C 29.5204,39.7772 33.3537,37.7772 37,35.5C 38.4089,31.1058 39.9089,26.7724 41.5,22.5 Z"/></g>
<g><path style="opacity:0.93" fill="#8bb6ef" d="M 152.5,36.5 C 162.482,35.9817 166.649,40.6484 165,50.5C 161.702,55.2205 157.202,56.7205 151.5,55C 146.847,52.0579 145.347,47.8912 147,42.5C 148.36,39.9774 150.193,37.9774 152.5,36.5 Z"/></g>
<g><path style="opacity:0.967" fill="#ffa585" d="M 99.5,103.5 C 94.3993,108.936 90.0659,114.936 86.5,121.5C 81.6549,113.635 78.3216,105.135 76.5,96C 76.9209,88.9914 79.4209,82.8247 84,77.5C 87.0535,74.1134 89.7202,70.4467 92,66.5C 99.1008,59.3396 106.434,59.0063 114,65.5C 116.374,69.8935 117.041,74.5602 116,79.5C 110.67,87.6554 105.17,95.6554 99.5,103.5 Z"/></g>
<g><path style="opacity:0.968" fill="#77eac4" d="M 190.5,75.5 C 195.74,74.5384 199.907,76.2051 203,80.5C 207.151,86.9631 210.317,93.7965 212.5,101C 212.624,103.59 211.958,105.923 210.5,108C 203.32,112.924 195.653,116.757 187.5,119.5C 183.965,119.649 181.132,118.316 179,115.5C 174.947,108.727 171.447,101.727 168.5,94.5C 168.891,91.2187 170.224,88.3854 172.5,86C 178.727,82.7257 184.727,79.2257 190.5,75.5 Z"/></g>
<g><path style="opacity:0.797" fill="#ffe265" d="M 234.5,75.5 C 241.225,75.2044 242.891,77.8711 239.5,83.5C 232.402,84.4567 230.735,81.7901 234.5,75.5 Z"/></g>
<g><path style="opacity:0.947" fill="#ffe265" d="M 27.5,104.5 C 35.1102,105.051 41.9436,107.717 48,112.5C 48.4044,120.871 45.571,128.037 39.5,134C 37.5,134.667 35.5,134.667 33.5,134C 29.5,132 25.5,130 21.5,128C 18.1519,124.581 17.6519,120.748 20,116.5C 21.7744,111.93 24.2744,107.93 27.5,104.5 Z"/></g>
<g><path style="opacity:1" fill="#ef7d85" d="M 99.5,103.5 C 108.911,103.562 118.244,104.395 127.5,106C 131.275,107.611 134.275,110.111 136.5,113.5C 133.855,118.782 130.688,123.782 127,128.5C 126.241,130.063 125.074,131.063 123.5,131.5C 114.131,130.998 104.798,130.165 95.5,129C 91.7252,127.389 88.7252,124.889 86.5,121.5C 90.0659,114.936 94.3993,108.936 99.5,103.5 Z"/></g>
<g><path style="opacity:0.966" fill="#ffa585" d="M 136.5,113.5 C 139.878,119.249 143.044,125.249 146,131.5C 148.034,137.608 147.701,143.608 145,149.5C 139.833,156.667 134.667,163.833 129.5,171C 119.748,176.75 112.248,174.583 107,164.5C 106.299,161.072 106.632,157.738 108,154.5C 113.682,147.121 118.849,139.455 123.5,131.5C 125.074,131.063 126.241,130.063 127,128.5C 130.688,123.782 133.855,118.782 136.5,113.5 Z"/></g>
<g><path style="opacity:0.977" fill="#a183e2" d="M 216.5,168.5 C 209.121,168.771 201.788,169.438 194.5,170.5C 196.896,164.151 199.396,157.818 202,151.5C 205.774,145.359 211.274,141.859 218.5,141C 225.676,140.24 232.842,139.406 240,138.5C 248.518,139.018 253.018,143.518 253.5,152C 253.468,158.401 250.468,162.734 244.5,165C 235.2,166.495 225.867,167.662 216.5,168.5 Z"/></g>
<g><path style="opacity:0.975" fill="#8bb6ef" d="M 63.5,176.5 C 56.3152,178.609 49.3152,180.942 42.5,183.5C 35.1012,185.016 27.7679,186.85 20.5,189C 6.83066,190.996 0.663994,185.163 2,171.5C 3.42142,167.08 6.42142,164.413 11,163.5C 21.2082,159.652 31.7082,157.819 42.5,158C 44.9494,158.725 47.2827,159.725 49.5,161C 54.7659,165.759 59.4325,170.925 63.5,176.5 Z"/></g>
<g><path style="opacity:1" fill="#9763e2" d="M 216.5,168.5 C 221.5,174.336 226.333,180.336 231,186.5C 233.996,191.77 235.162,197.437 234.5,203.5C 227.217,204.827 219.883,205.827 212.5,206.5C 207.877,200.706 203.044,195.039 198,189.5C 194.108,183.612 192.941,177.279 194.5,170.5C 201.788,169.438 209.121,168.771 216.5,168.5 Z"/></g>
<g><path style="opacity:1" fill="#8389ef" d="M 63.5,176.5 C 66.808,179.907 68.4746,184.073 68.5,189C 66.7417,198.44 64.075,207.607 60.5,216.5C 53.6647,218.777 46.6647,220.443 39.5,221.5C 37.1149,218.15 35.7816,214.317 35.5,210C 37.4464,201.047 39.7797,192.213 42.5,183.5C 49.3152,180.942 56.3152,178.609 63.5,176.5 Z"/></g>
<g><path style="opacity:0.972" fill="#a183e2" d="M 234.5,203.5 C 231.968,210.591 229.134,217.591 226,224.5C 222.311,230.094 217.144,233.261 210.5,234C 201.859,235.331 193.192,235.998 184.5,236C 175.496,232.351 172.663,225.851 176,216.5C 177.167,214 179,212.167 181.5,211C 191.744,208.928 202.077,207.428 212.5,206.5C 219.883,205.827 227.217,204.827 234.5,203.5 Z"/></g>
<g><path style="opacity:0.974" fill="#8bb5ef" d="M 39.5,221.5 C 46.6647,220.443 53.6647,218.777 60.5,216.5C 70.0337,213.7 79.7003,211.367 89.5,209.5C 101.723,211.948 105.556,218.948 101,230.5C 99.8333,231.667 98.6667,232.833 97.5,234C 85.9432,238.892 73.9432,241.225 61.5,241C 52.4592,236.461 45.1258,229.961 39.5,221.5 Z"/></g>
<g><path style="opacity:0.956" fill="#ef8bbc" d="M 134.5,255.5 C 131.5,255.5 128.5,255.5 125.5,255.5C 121.164,248.823 119.331,241.49 120,233.5C 120.833,232.667 121.667,231.833 122.5,231C 127.667,229.5 132.833,228 138,226.5C 140.058,227.112 141.891,228.112 143.5,229.5C 145.565,234.695 147.231,240.028 148.5,245.5C 148.06,248.214 146.726,250.38 144.5,252C 140.948,252.878 137.614,254.044 134.5,255.5 Z"/></g>
</svg>
