<?xml version="1.0" encoding="UTF-8"?>
<!DOCTYPE svg PUBLIC "-//W3C//DTD SVG 1.1//EN" "http://www.w3.org/Graphics/SVG/1.1/DTD/svg11.dtd">
<svg xmlns="http://www.w3.org/2000/svg" version="1.1" viewBox="0 0 420 364" width="420px" height="364px" style="shape-rendering:geometricPrecision; text-rendering:geometricPrecision; image-rendering:optimizeQuality; fill-rule:evenodd; clip-rule:evenodd" xmlns:xlink="http://www.w3.org/1999/xlink">
<g><path style="opacity:0.99" fill="#18abe8" d="M 247.5,58.5 C 261.65,80.7868 276.317,102.787 291.5,124.5C 279.857,133.324 267.857,141.657 255.5,149.5C 250.389,142.252 245.056,135.252 239.5,128.5C 228.343,112.195 217.177,95.8622 206,79.5C 202.567,74.5768 202.734,69.7435 206.5,65C 213.03,59.902 220.03,55.5686 227.5,52C 235.546,50.2936 242.212,52.4602 247.5,58.5 Z"/></g>
<g><path style="opacity:0.977" fill="#c4c8f7" d="M 357.5,80.5 C 348.381,86.4459 339.381,92.6125 330.5,99C 329.552,99.4828 328.552,99.6495 327.5,99.5C 323.221,92.7146 318.721,86.0479 314,79.5C 313.517,78.552 313.351,77.552 313.5,76.5C 320.976,71.9255 328.31,67.0922 335.5,62C 340.965,60.7106 345.465,62.2106 349,66.5C 352.107,71.0559 354.94,75.7226 357.5,80.5 Z"/></g>
<g><path style="opacity:0.999" fill="#a8aff1" d="M 357.5,80.5 C 361.223,84.9197 364.723,89.5863 368,94.5C 370.345,99.5954 369.512,104.095 365.5,108C 358.086,112.362 351.086,117.196 344.5,122.5C 338.833,115.167 333.167,107.833 327.5,100.5C 327.5,100.167 327.5,99.8333 327.5,99.5C 328.552,99.6495 329.552,99.4828 330.5,99C 339.381,92.6125 348.381,86.4459 357.5,80.5 Z"/></g>
<g><path style="opacity:0.999" fill="#136ef1" d="M 327.5,100.5 C 333.167,107.833 338.833,115.167 344.5,122.5C 351.076,132.645 357.91,142.645 365,152.5C 367.265,159.446 366.599,166.113 363,172.5C 354.898,179.108 346.398,185.108 337.5,190.5C 322.168,169.15 307.168,147.483 292.5,125.5C 303.883,116.786 315.55,108.453 327.5,100.5 Z"/></g>
<g><path style="opacity:1" fill="#1689fb" d="M 313.5,76.5 C 313.351,77.552 313.517,78.552 314,79.5C 318.721,86.0479 323.221,92.7146 327.5,99.5C 327.5,99.8333 327.5,100.167 327.5,100.5C 315.55,108.453 303.883,116.786 292.5,125.5C 307.168,147.483 322.168,169.15 337.5,190.5C 339.931,194.679 340.931,199.012 340.5,203.5C 339,206.5 337.5,209.5 336,212.5C 328.852,218.653 321.018,223.653 312.5,227.5C 308.448,226.957 305.282,224.957 303,221.5C 292.337,205.345 281.503,189.345 270.5,173.5C 265.886,165.558 260.886,157.892 255.5,150.5C 255.5,150.167 255.5,149.833 255.5,149.5C 267.857,141.657 279.857,133.324 291.5,124.5C 276.317,102.787 261.65,80.7868 247.5,58.5C 255.768,53.0236 264.101,47.5236 272.5,42C 280.235,39.9395 287.068,41.7728 293,47.5C 299.364,57.5844 306.197,67.251 313.5,76.5 Z"/></g>
<g><path style="opacity:0.988" fill="#c4c8f6" d="M 239.5,128.5 C 245.056,135.252 250.389,142.252 255.5,149.5C 255.5,149.833 255.5,150.167 255.5,150.5C 224.833,170.833 194.167,191.167 163.5,211.5C 159.59,205.355 155.423,199.355 151,193.5C 149.991,191.975 149.491,190.308 149.5,188.5C 179.5,168.5 209.5,148.5 239.5,128.5 Z"/></g>
<g><path style="opacity:0.989" fill="#17ace8" d="M 149.5,188.5 C 149.491,190.308 149.991,191.975 151,193.5C 155.423,199.355 159.59,205.355 163.5,211.5C 163.5,211.833 163.5,212.167 163.5,212.5C 151.811,220.685 139.977,228.685 128,236.5C 113.184,216.212 98.8503,195.545 85,174.5C 83.9609,173.29 82.7942,172.29 81.5,171.5C 78.7294,164.79 78.8961,158.123 82,151.5C 88.6081,145.559 95.7748,140.392 103.5,136C 106.167,135.333 108.833,135.333 111.5,136C 113.333,137.833 115.167,139.667 117,141.5C 127.306,157.621 138.14,173.288 149.5,188.5 Z"/></g>
<g><path style="opacity:1" fill="#a8aff1" d="M 255.5,150.5 C 260.886,157.892 265.886,165.558 270.5,173.5C 240.146,193.341 210.146,213.675 180.5,234.5C 174.853,227.235 169.187,219.902 163.5,212.5C 163.5,212.167 163.5,211.833 163.5,211.5C 194.167,191.167 224.833,170.833 255.5,150.5 Z"/></g>
<g><path style="opacity:1" fill="#1689fb" d="M 81.5,171.5 C 82.7942,172.29 83.9609,173.29 85,174.5C 98.8503,195.545 113.184,216.212 128,236.5C 139.977,228.685 151.811,220.685 163.5,212.5C 169.187,219.902 174.853,227.235 180.5,234.5C 193.094,252.263 205.094,270.43 216.5,289C 216.22,292.884 214.554,296.051 211.5,298.5C 205.669,302.583 199.669,306.416 193.5,310C 190.421,310.689 187.588,311.189 185,311.5C 179.604,310.223 175.104,307.557 171.5,303.5C 170.56,300.286 169.06,297.286 167,294.5C 153.913,275.325 140.579,256.325 127,237.5C 115.224,245.634 103.391,253.634 91.5,261.5C 91.1667,261.5 90.8333,261.5 90.5,261.5C 86.6568,253.659 81.6568,246.659 75.5,240.5C 68.9238,230.355 62.0905,220.355 55,210.5C 51.7485,204.034 52.0818,197.367 56,190.5C 64.401,183.918 72.901,177.585 81.5,171.5 Z"/></g>
<g><path style="opacity:0.999" fill="#136ef1" d="M 171.5,303.5 C 163.74,309.224 155.74,314.724 147.5,320C 139.294,322.225 132.127,320.392 126,314.5C 119.67,304.679 113.17,295.012 106.5,285.5C 101.527,277.517 96.5267,269.517 91.5,261.5C 103.391,253.634 115.224,245.634 127,237.5C 140.579,256.325 153.913,275.325 167,294.5C 169.06,297.286 170.56,300.286 171.5,303.5 Z"/></g>
<g><path style="opacity:0.978" fill="#c4c8f6" d="M 75.5,240.5 C 81.6568,246.659 86.6568,253.659 90.5,261.5C 81.1667,268.5 71.8333,275.5 62.5,282.5C 58.1423,277.627 54.309,272.294 51,266.5C 49.6306,261.563 50.7973,257.396 54.5,254C 61.5283,249.489 68.5283,244.989 75.5,240.5 Z"/></g>
<g><path style="opacity:1" fill="#a8aff1" d="M 90.5,261.5 C 90.8333,261.5 91.1667,261.5 91.5,261.5C 96.5267,269.517 101.527,277.517 106.5,285.5C 98.7958,289.692 91.4624,294.525 84.5,300C 79.2504,302.319 74.7504,301.153 71,296.5C 67.893,291.944 65.0597,287.277 62.5,282.5C 71.8333,275.5 81.1667,268.5 90.5,261.5 Z"/></g>
</svg>
