<?xml version="1.0" encoding="UTF-8"?>
<!DOCTYPE svg PUBLIC "-//W3C//DTD SVG 1.1//EN" "http://www.w3.org/Graphics/SVG/1.1/DTD/svg11.dtd">
<svg xmlns="http://www.w3.org/2000/svg" version="1.1" viewBox="0 0 242 410" width="242px" height="410px" style="shape-rendering:geometricPrecision; text-rendering:geometricPrecision; image-rendering:optimizeQuality; fill-rule:evenodd; clip-rule:evenodd" xmlns:xlink="http://www.w3.org/1999/xlink">
<g><path style="opacity:0.99" fill="#ff7d3c" d="M 120.5,102.5 C 120.5,120.5 120.5,138.5 120.5,156.5C 91.9046,177.433 63.9046,199.099 36.5,221.5C 33.9974,223.833 31.3307,225.999 28.5,228C 26.9556,229.187 25.2889,229.52 23.5,229C 15.6009,218.673 7.60093,208.507 -0.5,198.5C -0.5,197.5 -0.5,196.5 -0.5,195.5C 39.653,164.258 79.9864,133.258 120.5,102.5 Z"/></g>
<g><path style="opacity:0.999" fill="#ff4e19" d="M 120.5,102.5 C 137.432,114.759 154.099,127.425 170.5,140.5C 171.494,135.544 171.827,130.544 171.5,125.5C 183.5,125.5 195.5,125.5 207.5,125.5C 207.333,140.17 207.5,154.837 208,169.5C 219.328,177.999 230.495,186.666 241.5,195.5C 241.5,196.5 241.5,197.5 241.5,198.5C 233.399,208.507 225.399,218.673 217.5,229C 215.711,229.52 214.044,229.187 212.5,228C 209.669,225.999 207.003,223.833 204.5,221.5C 177.095,199.099 149.095,177.433 120.5,156.5C 120.5,138.5 120.5,120.5 120.5,102.5 Z"/></g>
<g><path style="opacity:0.982" fill="#ffb64e" d="M 120.5,156.5 C 120.5,185.5 120.5,214.5 120.5,243.5C 115.167,243.5 109.833,243.5 104.5,243.5C 104.5,264.5 104.5,285.5 104.5,306.5C 81.8333,306.5 59.1667,306.5 36.5,306.5C 36.5,278.167 36.5,249.833 36.5,221.5C 63.9046,199.099 91.9046,177.433 120.5,156.5 Z"/></g>
<g><path style="opacity:0.998" fill="#ff9a00" d="M 120.5,156.5 C 149.095,177.433 177.095,199.099 204.5,221.5C 204.5,249.833 204.5,278.167 204.5,306.5C 182.831,306.667 161.164,306.5 139.5,306C 138.507,285.242 138.173,264.409 138.5,243.5C 132.5,243.5 126.5,243.5 120.5,243.5C 120.5,214.5 120.5,185.5 120.5,156.5 Z"/></g>
</svg>
