<?xml version="1.0" encoding="UTF-8"?>
<!DOCTYPE svg PUBLIC "-//W3C//DTD SVG 1.1//EN" "http://www.w3.org/Graphics/SVG/1.1/DTD/svg11.dtd">
<svg xmlns="http://www.w3.org/2000/svg" version="1.1"  viewBox="0 0 256 300" width="262px" height="300px" style="shape-rendering:geometricPrecision; text-rendering:geometricPrecision; image-rendering:optimizeQuality; fill-rule:evenodd; clip-rule:evenodd" xmlns:xlink="http://www.w3.org/1999/xlink">
<g><path style="opacity:0.996" fill="#e67e21" d="M 130.5,23.5 C 163.251,44.8613 198.917,59.6946 237.5,68C 239.993,71.1744 240.993,74.841 240.5,79C 240.457,113.638 235.29,147.471 225,180.5C 215.516,208.659 199.682,232.492 177.5,252C 163.474,263.013 147.807,270.846 130.5,275.5C 130.168,265.81 130.502,256.144 131.5,246.5C 166.882,231.084 189.715,204.751 200,167.5C 207.864,142.788 211.53,117.455 211,91.5C 194.722,85.7842 178.556,79.6175 162.5,73C 151.849,68.0092 141.516,62.5092 131.5,56.5C 130.501,45.5202 130.168,34.5202 130.5,23.5 Z"/></g>
<g><path style="opacity:1" fill="#f29c12" d="M 130.5,23.5 C 130.168,34.5202 130.501,45.5202 131.5,56.5C 141.516,62.5092 151.849,68.0092 162.5,73C 178.556,79.6175 194.722,85.7842 211,91.5C 211.53,117.455 207.864,142.788 200,167.5C 189.715,204.751 166.882,231.084 131.5,246.5C 130.502,256.144 130.168,265.81 130.5,275.5C 95.0128,265.508 68.1795,244.508 50,212.5C 34.4844,183.115 25.4844,151.781 23,118.5C 21.5766,102.854 20.91,87.187 21,71.5C 21.6368,69.6969 22.8035,68.3636 24.5,67.5C 55.0304,60.813 84.0304,49.9797 111.5,35C 117.268,30.121 123.602,26.2877 130.5,23.5 Z"/></g>
<g><path style="opacity:1" fill="#f1c30f" d="M 127.5,57.5 C 128.5,57.5 129.5,57.5 130.5,57.5C 130.5,120.167 130.5,182.833 130.5,245.5C 110.615,239.133 94.4479,227.466 82,210.5C 66.4352,187.149 56.7685,161.483 53,133.5C 50.8938,119.561 49.8938,105.561 50,91.5C 50.8333,90.6667 51.6667,89.8333 52.5,89C 79.1827,82.2794 104.183,71.7794 127.5,57.5 Z"/></g>
</svg>
