<?xml version="1.0" encoding="UTF-8"?>
<!DOCTYPE svg PUBLIC "-//W3C//DTD SVG 1.1//EN" "http://www.w3.org/Graphics/SVG/1.1/DTD/svg11.dtd">
<svg xmlns="http://www.w3.org/2000/svg" version="1.1" viewBox="0 0 250 257" width="250px" height="257px" style="shape-rendering:geometricPrecision; text-rendering:geometricPrecision; image-rendering:optimizeQuality; fill-rule:evenodd; clip-rule:evenodd" xmlns:xlink="http://www.w3.org/1999/xlink">
<g><path style="opacity:0.989" fill="#d3dcfa" d="M 93.5,6.5 C 82.7434,34.9327 72.0768,63.4327 61.5,92C 61.5699,92.7648 61.9033,93.2648 62.5,93.5C 62.1583,94.3382 61.4916,94.6716 60.5,94.5C 56.2632,96.3577 51.9299,98.0244 47.5,99.5C 45.1667,99.1667 43.8333,97.8333 43.5,95.5C 49.1842,79.4734 54.8509,63.4734 60.5,47.5C 65.6506,33.8588 70.8172,20.1922 76,6.5C 77.7795,4.23646 80.1128,2.90312 83,2.5C 86.5807,3.71054 90.0807,5.04387 93.5,6.5 Z"/></g>
<g><path style="opacity:0.995" fill="#e8eefe" d="M 93.5,6.5 C 130.479,20.3199 167.479,34.1532 204.5,48C 210.818,51.3045 212.152,56.1378 208.5,62.5C 202.608,76.2848 197.275,90.2848 192.5,104.5C 191.609,103.89 190.609,103.557 189.5,103.5C 181.322,96.9679 171.988,94.8012 161.5,97C 157.603,98.019 153.936,99.519 150.5,101.5C 144.736,98.2518 139.069,94.7518 133.5,91C 131.833,90.3333 130.167,90.3333 128.5,91C 116.944,98.7331 105.277,106.233 93.5,113.5C 84.4411,107.95 75.7744,101.783 67.5,95C 65.9751,93.9914 64.3084,93.4914 62.5,93.5C 61.9033,93.2648 61.5699,92.7648 61.5,92C 72.0768,63.4327 82.7434,34.9327 93.5,6.5 Z"/></g>
<g><path style="opacity:1" fill="#bfc9f7" d="M 95.5,34.5 C 122.409,43.3597 149.075,53.0264 175.5,63.5C 176.452,65.0453 176.785,66.712 176.5,68.5C 172.681,68.395 169.014,67.5617 165.5,66C 142.294,57.1555 119.128,48.3221 96,39.5C 95.5065,37.8659 95.3398,36.1992 95.5,34.5 Z"/></g>
<g><path style="opacity:0.949" fill="#fedc44" d="M 60.5,47.5 C 54.8509,63.4734 49.1842,79.4734 43.5,95.5C 43.8333,97.8333 45.1667,99.1667 47.5,99.5C 51.9299,98.0244 56.2632,96.3577 60.5,94.5C 58.4393,99.0148 56.7726,103.681 55.5,108.5C 54.5084,108.328 53.8417,108.662 53.5,109.5C 47.4988,109.663 41.8322,110.996 36.5,113.5C 32.718,124.212 28.3846,134.545 23.5,144.5C 22.5133,138.195 22.3466,131.862 23,125.5C 31.2253,102.151 40.2253,79.1506 50,56.5C 53.0781,52.9155 56.5781,49.9155 60.5,47.5 Z"/></g>
<g><path style="opacity:1" fill="#bfc9f7" d="M 89.5,51.5 C 93.2924,51.7264 96.9591,52.5597 100.5,54C 123.38,62.9382 146.38,71.6049 169.5,80C 171.184,82.7864 170.517,84.6198 167.5,85.5C 141.01,76.3362 114.843,66.3362 89,55.5C 88.4209,54.0715 88.5876,52.7382 89.5,51.5 Z"/></g>
<g><path style="opacity:0.993" fill="#bec8f6" d="M 208.5,62.5 C 213.574,63.4476 217.741,65.7809 221,69.5C 221.691,73.0213 221.191,76.3546 219.5,79.5C 213.796,92.9334 208.462,106.6 203.5,120.5C 200.846,114.543 197.179,109.209 192.5,104.5C 197.275,90.2848 202.608,76.2848 208.5,62.5 Z"/></g>
<g><path style="opacity:1" fill="#c0c9f7" d="M 83.5,67.5 C 93.1953,70.6784 102.862,74.1784 112.5,78C 114.09,80.4798 113.59,82.3132 111,83.5C 101.778,80.1388 92.6114,76.6388 83.5,73C 82.2475,71.1722 82.2475,69.3388 83.5,67.5 Z"/></g>
<g><path style="opacity:0.99" fill="#d3dbf9" d="M 219.5,79.5 C 225.687,80.2488 230.02,83.4155 232.5,89C 229.859,95.7567 227.526,102.59 225.5,109.5C 212.226,141.301 199.892,173.635 188.5,206.5C 181.972,212.348 174.638,217.015 166.5,220.5C 172.908,201.276 179.908,182.276 187.5,163.5C 202.602,152.939 207.935,138.605 203.5,120.5C 208.462,106.6 213.796,92.9334 219.5,79.5 Z"/></g>
<g><path style="opacity:1" fill="#bec8f6" d="M 150.5,101.5 C 145.167,104.833 140.833,109.167 137.5,114.5C 135.441,111.851 132.775,111.018 129.5,112C 116.289,119.438 102.956,126.605 89.5,133.5C 80.0747,125.578 71.0747,117.078 62.5,108C 60.1152,107.444 57.7819,107.61 55.5,108.5C 56.7726,103.681 58.4393,99.0148 60.5,94.5C 61.4916,94.6716 62.1583,94.3382 62.5,93.5C 64.3084,93.4914 65.9751,93.9914 67.5,95C 75.7744,101.783 84.4411,107.95 93.5,113.5C 105.277,106.233 116.944,98.7331 128.5,91C 130.167,90.3333 131.833,90.3333 133.5,91C 139.069,94.7518 144.736,98.2518 150.5,101.5 Z"/></g>
<g><path style="opacity:1" fill="#e80d57" d="M 189.5,103.5 C 180.45,102.632 172.45,104.965 165.5,110.5C 158.167,109.167 155.167,112.167 156.5,119.5C 154.038,123.887 152.371,128.554 151.5,133.5C 146.179,137.451 146.179,141.451 151.5,145.5C 153.962,153.763 157.962,161.096 163.5,167.5C 144.231,163.056 134.231,150.889 133.5,131C 133.707,125.214 135.041,119.714 137.5,114.5C 140.833,109.167 145.167,104.833 150.5,101.5C 153.936,99.519 157.603,98.019 161.5,97C 171.988,94.8012 181.322,96.9679 189.5,103.5 Z"/></g>
<g><path style="opacity:1" fill="#fe4457" d="M 189.5,103.5 C 190.609,103.557 191.609,103.89 192.5,104.5C 197.179,109.209 200.846,114.543 203.5,120.5C 207.935,138.605 202.602,152.939 187.5,163.5C 180.217,166.86 172.551,168.193 164.5,167.5C 164.167,167.5 163.833,167.5 163.5,167.5C 157.962,161.096 153.962,153.763 151.5,145.5C 156.334,144.421 161.001,142.755 165.5,140.5C 168.292,144.343 170.626,148.51 172.5,153C 179.684,155.654 182.851,153.154 182,145.5C 180.364,142.394 178.864,139.227 177.5,136C 180.69,133.236 184.356,131.236 188.5,130C 193.239,124.444 192.072,120.944 185,119.5C 181.031,120.399 177.198,121.732 173.5,123.5C 172.833,123.167 172.167,122.833 171.5,122.5C 169.68,118.347 167.68,114.347 165.5,110.5C 172.45,104.965 180.45,102.632 189.5,103.5 Z"/></g>
<g><path style="opacity:1" fill="#e8eefe" d="M 137.5,114.5 C 135.041,119.714 133.707,125.214 133.5,131C 134.231,150.889 144.231,163.056 163.5,167.5C 163.833,167.5 164.167,167.5 164.5,167.5C 165.609,168.29 166.942,168.79 168.5,169C 161.043,188.088 153.709,207.254 146.5,226.5C 125.768,219.42 105.434,211.254 85.5,202C 76.6419,195.985 69.6419,188.818 64.5,180.5C 83.4789,187.653 102.479,194.82 121.5,202C 125.667,203.167 127.167,201.667 126,197.5C 103.378,188.908 80.8784,180.241 58.5,171.5C 56.272,167.042 54.6054,162.375 53.5,157.5C 77.8596,166.565 102.193,175.731 126.5,185C 128.473,185.495 130.473,185.662 132.5,185.5C 132.739,183.533 132.406,181.699 131.5,180C 105.355,169.925 79.0218,160.425 52.5,151.5C 51.8826,151.389 51.3826,151.056 51,150.5C 50.3333,141.167 50.3333,131.833 51,122.5C 51.6606,118.352 52.8272,114.352 54.5,110.5C 54.3764,109.893 54.0431,109.56 53.5,109.5C 53.8417,108.662 54.5084,108.328 55.5,108.5C 57.7819,107.61 60.1152,107.444 62.5,108C 71.0747,117.078 80.0747,125.578 89.5,133.5C 102.956,126.605 116.289,119.438 129.5,112C 132.775,111.018 135.441,111.851 137.5,114.5 Z"/></g>
<g><path style="opacity:0.997" fill="#d3dcfa" d="M 53.5,109.5 C 54.0431,109.56 54.3764,109.893 54.5,110.5C 52.8272,114.352 51.6606,118.352 51,122.5C 50.3333,131.833 50.3333,141.167 51,150.5C 51.3826,151.056 51.8826,151.389 52.5,151.5C 51.0048,153.831 51.3382,155.831 53.5,157.5C 54.6054,162.375 56.272,167.042 58.5,171.5C 55.0445,170.404 51.5445,169.404 48,168.5C 45.0585,168.437 44.0585,169.77 45,172.5C 51.4736,175.484 57.9736,178.151 64.5,180.5C 69.6419,188.818 76.6419,195.985 85.5,202C 105.434,211.254 125.768,219.42 146.5,226.5C 146.5,226.833 146.5,227.167 146.5,227.5C 100.912,234.597 64.745,219.597 38,182.5C 30.7045,170.781 25.8712,158.115 23.5,144.5C 28.3846,134.545 32.718,124.212 36.5,113.5C 41.8322,110.996 47.4988,109.663 53.5,109.5 Z"/></g>
<g><path style="opacity:0.933" fill="#fedd45" d="M 225.5,109.5 C 225.959,114.734 226.626,119.9 227.5,125C 219.008,147.806 210.508,170.639 202,193.5C 198.291,198.71 193.791,203.043 188.5,206.5C 199.892,173.635 212.226,141.301 225.5,109.5 Z"/></g>
<g><path style="opacity:1" fill="#fffbfb" d="M 165.5,110.5 C 167.68,114.347 169.68,118.347 171.5,122.5C 172.167,122.833 172.833,123.167 173.5,123.5C 177.198,121.732 181.031,120.399 185,119.5C 192.072,120.944 193.239,124.444 188.5,130C 184.356,131.236 180.69,133.236 177.5,136C 178.864,139.227 180.364,142.394 182,145.5C 182.851,153.154 179.684,155.654 172.5,153C 170.626,148.51 168.292,144.343 165.5,140.5C 161.001,142.755 156.334,144.421 151.5,145.5C 146.179,141.451 146.179,137.451 151.5,133.5C 154.93,132.286 158.264,130.786 161.5,129C 160.105,125.612 158.438,122.445 156.5,119.5C 155.167,112.167 158.167,109.167 165.5,110.5 Z"/></g>
<g><path style="opacity:1" fill="#fe495c" d="M 156.5,119.5 C 158.438,122.445 160.105,125.612 161.5,129C 158.264,130.786 154.93,132.286 151.5,133.5C 152.371,128.554 154.038,123.887 156.5,119.5 Z"/></g>
<g><path style="opacity:1" fill="#c0caf7" d="M 58.5,134.5 C 85.4683,143.991 112.302,153.991 139,164.5C 139.779,166.906 138.946,168.573 136.5,169.5C 110.153,159.907 83.9859,149.907 58,139.5C 57.3603,137.735 57.5269,136.068 58.5,134.5 Z"/></g>
<g><path style="opacity:1" fill="#c0c9f7" d="M 52.5,151.5 C 79.0218,160.425 105.355,169.925 131.5,180C 132.406,181.699 132.739,183.533 132.5,185.5C 130.473,185.662 128.473,185.495 126.5,185C 102.193,175.731 77.8596,166.565 53.5,157.5C 51.3382,155.831 51.0048,153.831 52.5,151.5 Z"/></g>
<g><path style="opacity:0.995" fill="#bfc8f6" d="M 187.5,163.5 C 179.908,182.276 172.908,201.276 166.5,220.5C 160.113,223.629 153.446,225.963 146.5,227.5C 146.5,227.167 146.5,226.833 146.5,226.5C 153.709,207.254 161.043,188.088 168.5,169C 166.942,168.79 165.609,168.29 164.5,167.5C 172.551,168.193 180.217,166.86 187.5,163.5 Z"/></g>
<g><path style="opacity:1" fill="#bfc9f7" d="M 58.5,171.5 C 80.8784,180.241 103.378,188.908 126,197.5C 127.167,201.667 125.667,203.167 121.5,202C 102.479,194.82 83.4789,187.653 64.5,180.5C 57.9736,178.151 51.4736,175.484 45,172.5C 44.0585,169.77 45.0585,168.437 48,168.5C 51.5445,169.404 55.0445,170.404 58.5,171.5 Z"/></g>
</svg>
