<?xml version="1.0" encoding="UTF-8"?>
<!DOCTYPE svg PUBLIC "-//W3C//DTD SVG 1.1//EN" "http://www.w3.org/Graphics/SVG/1.1/DTD/svg11.dtd">
<svg xmlns="http://www.w3.org/2000/svg" version="1.1"  viewBox="0 0 256 300" width="256px" height="300px" style="shape-rendering:geometricPrecision; text-rendering:geometricPrecision; image-rendering:optimizeQuality; fill-rule:evenodd; clip-rule:evenodd" xmlns:xlink="http://www.w3.org/1999/xlink">
<g><path style="opacity:0.992" fill="#feba85" d="M 125.5,21.5 C 125.5,62.5 125.5,103.5 125.5,144.5C 127.833,144.5 130.167,144.5 132.5,144.5C 105.998,147 85.4978,137 71,114.5C 56.8043,83.8148 61.971,56.9815 86.5,34C 97.946,25.1296 110.946,20.9629 125.5,21.5 Z"/></g>
<g><path style="opacity:1" fill="#f5a86c" d="M 125.5,21.5 C 152.734,22.0294 171.901,34.6961 183,59.5C 193.484,91.7129 184.984,117.546 157.5,137C 149.784,141.628 141.451,144.128 132.5,144.5C 130.167,144.5 127.833,144.5 125.5,144.5C 125.5,103.5 125.5,62.5 125.5,21.5 Z"/></g>
<g><path style="opacity:0.997" fill="#69a8ff" d="M 125.5,164.5 C 125.5,202.167 125.5,239.833 125.5,277.5C 101.831,277.667 78.1643,277.5 54.5,277C 29.5041,270.532 18.1708,254.366 20.5,228.5C 19.0999,204.975 24.5999,183.308 37,163.5C 48.0128,150.077 62.1795,143.91 79.5,145C 88.48,149.967 97.48,154.967 106.5,160C 112.658,162.29 118.992,163.79 125.5,164.5 Z"/></g>
<g><path style="opacity:1" fill="#2682ff" d="M 125.5,277.5 C 125.5,239.833 125.5,202.167 125.5,164.5C 133.07,164.183 140.403,162.683 147.5,160C 156.661,155.254 165.661,150.254 174.5,145C 199.765,144.912 216.932,156.745 226,180.5C 233.048,201.345 235.382,222.678 233,244.5C 228.746,262.42 217.58,273.253 199.5,277C 174.836,277.5 150.169,277.667 125.5,277.5 Z"/></g>
</svg>
